<?xml version="1.0" encoding="UTF-8"?>
<svg width="72px" height="29px" viewBox="0 0 72 29" version="1.1" xmlns="http://www.w3.org/2000/svg" xmlns:xlink="http://www.w3.org/1999/xlink">
    <title>B172D239-3199-4070-8D8E-FBA067A7220B</title>
    <g id="VTEX" stroke="none" stroke-width="1" fill="none" fill-rule="evenodd">
        <g id="vtex-pago-efectivo-logos" transform="translate(-606.000000, -440.000000)" fill="#435365">
            <g id="Group" transform="translate(449.000000, 387.000000)">
                <g id="fa_ahorro" transform="translate(157.667153, 53.300466)">
                    <path d="M69.834553,24.1271374 C69.8406599,24.0947214 69.7900601,24.027188 69.7542914,24.0181836 C69.6688825,23.994772 69.5771922,23.9974734 69.4803548,23.9884689 L69.4803548,24.262204 C69.5763198,24.2577018 69.6619032,24.2658058 69.7394604,24.2432947 C69.7804636,24.2324894 69.8275738,24.1721596 69.834553,24.1271374 L69.834553,24.1271374 Z M70.0962759,24.7916653 C69.8947493,24.8483933 69.8869848,24.8402893 69.7944222,24.6710058 C69.7264615,24.5485454 69.6801365,24.3864654 69.4733755,24.4251845 L69.4733755,24.8096742 L69.2911291,24.8096742 L69.2911291,23.8398956 C69.4524377,23.8398956 69.5920232,23.8362938 69.7316087,23.8398956 C69.923626,23.8461987 70.0143566,23.9146325 70.0431462,24.0650067 C70.0692312,24.2000734 70.0090349,24.2982218 69.8450219,24.3864654 C69.9279009,24.5197311 70.010867,24.6538973 70.0962759,24.7916653 L70.0962759,24.7916653 Z M70.4051089,24.3216334 C70.399002,23.9056281 70.083277,23.5841694 69.682841,23.585068 C69.284935,23.5859703 68.9647607,23.9182343 68.9674652,24.3279365 C68.9709548,24.7439418 69.2823178,25.0599978 69.6898203,25.0590992 C70.0936587,25.0581969 70.4104306,24.732236 70.4051089,24.3216334 L70.4051089,24.3216334 Z M70.5795908,24.3306378 C70.5795908,24.8285836 70.1740076,25.2409871 69.6837134,25.2391921 C69.1915872,25.2382858 68.7937684,24.8312849 68.7937684,24.3279365 C68.7937684,23.8074796 69.1820779,23.4067819 69.6862434,23.4076808 C70.1888386,23.4085827 70.5795908,23.8119818 70.5795908,24.3306378 L70.5795908,24.3306378 Z M51.5197977,5.83469958 L52.4930578,5.83469958 L52.4930578,4.73390631 L51.5197977,4.73390631 L51.5197977,5.83469958 Z M51.6615642,6.32048933 C51.5327093,6.31562693 51.5084564,6.3638007 51.5086299,6.48554078 C51.512295,7.93075404 51.5108991,9.3757872 51.5115098,10.8208204 C51.5115098,10.8718756 51.5158718,10.9225706 51.5184891,10.9747963 L52.4967219,10.9747963 L52.4967219,6.32373093 C52.2088267,6.32373093 51.9348901,6.3305743 51.6615642,6.32048933 L51.6615642,6.32048933 Z M39.043207,6.91883463 L39.043207,6.33579688 L38.1555303,6.33579688 L38.1555303,10.9785782 L39.1213749,10.9785782 L39.1213749,10.7899351 C39.1213749,10.0983938 39.1166639,9.40667244 39.1239049,8.71513115 C39.1261732,8.48578796 39.14493,8.25482397 39.180437,8.02827216 C39.2257151,7.73922951 39.3681796,7.6374793 39.6493572,7.6593601 C39.7126069,7.66422249 39.7751586,7.67493778 39.8455621,7.68385218 L39.8455621,6.24467191 C39.441462,6.30437137 39.2584305,6.61934682 39.043207,6.91883463 L39.043207,6.91883463 Z M67.4916972,4.78694248 L67.4916972,10.5922876 C67.4916972,10.9857818 67.4916972,10.9857818 67.8779129,10.9857818 L68.4707152,10.9857818 L68.4707152,4.78694248 L67.4916972,4.78694248 Z M58.8258787,9.32671298 C58.7822582,8.92610527 58.6037632,8.60815835 58.287602,8.37566361 C58.1173076,8.25041179 57.9370678,8.14028745 57.7630221,8.02079847 C57.6511792,7.94408061 57.5346253,7.87141475 57.4336875,7.78074 C57.2995109,7.66026054 57.2403616,7.50331308 57.2772645,7.31548038 C57.3091074,7.15186964 57.4292382,7.03886386 57.5838292,7.03075986 C57.7333602,7.02328618 57.8429348,7.10369586 57.8881257,7.27108847 C57.9130766,7.36248358 57.9253775,7.45919131 57.9298268,7.55436828 C57.9340144,7.64900498 57.9622805,7.69222632 58.0620841,7.6859232 C58.1919859,7.67781921 58.3224984,7.68412232 58.4527491,7.68412232 C58.8228252,7.68412232 58.8228252,7.68412232 58.789063,7.30368456 C58.7395101,6.74946104 58.4091286,6.34101946 57.9234582,6.23395662 C57.3188784,6.10096098 56.7886279,6.31967893 56.5262071,6.81060121 C56.1866653,7.44586473 56.3405584,8.34594894 56.8822374,8.80490545 C57.0753889,8.96842615 57.2954106,9.09763992 57.5026951,9.24342187 C57.6100887,9.31896916 57.7241127,9.38704275 57.8213863,9.47474604 C57.9580057,9.59792683 57.9862717,9.82438859 57.9055738,10.007539 C57.8392707,10.1578232 57.7157375,10.2311193 57.5578314,10.2141009 C57.3957377,10.1968124 57.2992492,10.09065 57.2462067,9.85869552 C57.2218665,9.752263 57.2086931,9.64348932 57.1891511,9.52697181 L56.305662,9.52697181 C56.3165671,9.67869669 56.3182247,9.82672975 56.3392497,9.97143116 C56.4121832,10.4740592 56.6218232,10.8870931 57.1265994,11.0365668 C57.3387694,11.0991477 57.5776351,11.1068915 57.7993144,11.0856411 C58.2238289,11.044941 58.5365877,10.8118159 58.7085396,10.4004929 C58.8523999,10.0557128 58.8660968,9.69481465 58.8258787,9.32671298 L58.8258787,9.32671298 Z M49.9094169,9.17327725 C49.9094169,9.32158044 49.9199731,9.45655706 49.9062762,9.5887423 C49.8923177,9.72542975 49.8644006,9.86274752 49.8241825,9.99376218 C49.7905947,10.1024458 49.705622,10.1618752 49.5871488,10.1572829 C49.4723397,10.1526906 49.4082176,10.0796646 49.3736702,9.97989534 C49.3456659,9.89966574 49.320017,9.81340317 49.3185339,9.72921162 C49.3067564,9.0769297 49.2959385,8.42464778 49.297945,7.77245591 C49.2982068,7.62244188 49.3381631,7.46918624 49.3791664,7.3232242 C49.4082176,7.21913283 49.4965927,7.16600661 49.6064291,7.16663692 C49.7154803,7.16690706 49.7939971,7.21940296 49.8362217,7.32214367 C49.858032,7.37436944 49.8780974,7.43001691 49.8839425,7.48593451 C49.9040952,7.67547805 49.9175303,7.86556186 49.9337571,8.06005785 L50.8866028,8.06005785 C50.8720336,7.85115475 50.8619136,7.65152623 50.8429824,7.45279815 C50.8333859,7.35293887 50.8130587,7.25343976 50.7892419,7.15592164 C50.6017611,6.38775252 50.0910526,6.14166107 49.3960039,6.21378667 C49.0491338,6.25016462 48.7587087,6.40306008 48.584314,6.72550922 C48.5041396,6.87435267 48.4401047,7.0399444 48.4054701,7.2058963 C48.217902,8.10300905 48.2296796,9.00624482 48.3612389,9.90975072 C48.3817405,10.0508504 48.4199521,10.1913197 48.4655791,10.3262963 C48.6827218,10.9702041 49.1408241,11.1135548 49.645862,11.1060811 C50.0111399,11.1008586 50.3406489,10.9927152 50.5629389,10.6756687 C50.8772681,10.2265271 50.8957631,9.70643038 50.8796236,9.17327725 L49.9094169,9.17327725 Z M65.2544029,7.93624675 C65.2535305,7.96416052 65.3059623,8.01818719 65.3356242,8.01998807 C65.533574,8.02719163 65.7324833,8.02358985 65.9776304,8.02358985 C65.9497133,7.76606276 65.9409892,7.53194721 65.8948388,7.30683612 C65.8607275,7.13845301 65.740335,7.07091968 65.5850461,7.07632235 C65.4393537,7.08172502 65.3321346,7.1564619 65.3033451,7.32394456 C65.2692339,7.52474366 65.2632142,7.73184587 65.2544029,7.93624675 L65.2544029,7.93624675 Z M66.8535296,9.37605733 C66.8509124,9.85779508 66.8238677,10.3251257 66.5115451,10.7114164 C66.2506946,11.0337755 65.8912619,11.1148155 65.5066165,11.1040101 C65.3774127,11.1004083 65.2456788,11.081499 65.1209242,11.0481826 C64.6131819,10.9122155 64.3628004,10.5295266 64.3095834,10.0279791 C64.2511319,9.4769071 64.2372606,8.91953202 64.2311538,8.36395783 C64.2275769,8.01998807 64.2546216,7.67331698 64.3035637,7.33204856 C64.3628004,6.91424236 64.5372823,6.55226371 64.9272493,6.34966373 C65.4236504,6.09213663 66.3396804,6.10024063 66.6677064,6.82149659 C66.7619266,7.0285988 66.8229953,7.26721656 66.8370411,7.49592944 C66.8631261,7.92994364 66.8448055,8.36575872 66.8448055,8.82318447 L65.9950786,8.82318447 C65.7996589,8.82318447 65.6033667,8.83398981 65.4089066,8.82048314 C65.2667039,8.80967781 65.2142721,8.86280403 65.2212513,9.00237291 C65.2379144,9.29321645 65.2379144,9.58676132 65.2727235,9.87490352 C65.2980234,10.0856075 65.4201607,10.1801542 65.5841737,10.1792537 C65.7473143,10.1774528 65.8624724,10.0793044 65.9008584,9.87400308 C65.9305203,9.71642531 65.9305203,9.55254443 65.9444789,9.37605733 L66.8535296,9.37605733 Z M36.4588682,8.72863781 C36.15431,8.84209381 35.9031433,8.96185291 35.764343,9.24459245 C35.6675055,9.44088933 35.6544194,9.64889198 35.7163605,9.85869552 C35.7591085,10.0009657 35.8481815,10.1054173 36.0025108,10.1135213 C36.1551825,10.1216253 36.2729577,10.0522911 36.3401333,9.90731952 C36.3706676,9.84428841 36.4004168,9.77405375 36.4047788,9.70471953 C36.4273742,9.39046444 36.4404604,9.07620935 36.4588682,8.72863781 L36.4588682,8.72863781 Z M37.589511,10.984251 C37.2570357,10.984251 36.9456727,10.9869523 36.6350077,10.9806492 C36.6080503,10.9806492 36.5669598,10.927523 36.5582357,10.8924057 C36.5338082,10.7933568 36.5233393,10.6907061 36.5067635,10.5880555 C36.4335683,10.6564893 36.3716273,10.7123168 36.3113438,10.7717461 C35.8637977,11.2183666 35.0115408,11.2570857 34.7584548,10.3413337 C34.6685966,10.0126715 34.662577,9.67860665 34.7261756,9.34364133 C34.8196107,8.85289914 35.1344633,8.55125027 35.5418785,8.32974095 C35.764343,8.20998184 35.9920419,8.10102807 36.2057822,7.96596141 C36.3924779,7.84710275 36.4876577,7.66701387 36.4483993,7.42749566 C36.4195226,7.24740679 36.3226851,7.13665213 36.1656514,7.12134457 C36.0042556,7.10603702 35.8681597,7.1969819 35.819392,7.36986722 C35.7870256,7.48422366 35.7739395,7.60398277 35.7486396,7.73994987 C35.4521076,7.73994987 35.1458046,7.7426512 34.8404613,7.73544765 C34.8177786,7.7345472 34.7776478,7.65981032 34.7794798,7.62109121 C34.8134166,6.84580859 35.0926749,6.19208596 36.1168837,6.2010904 C36.349817,6.20289129 36.5913872,6.24251084 36.8112344,6.31904862 C37.1950946,6.45231439 37.4009833,6.76026637 37.4411141,7.1726699 C37.4655416,7.42929655 37.4725209,7.68952498 37.4777553,7.94795252 C37.4829898,8.27031162 37.4742657,8.59177026 37.4795002,8.91322891 C37.4899691,9.5984671 37.42986,10.2864066 37.589511,10.984251 L37.589511,10.984251 Z M54.8404501,8.76825737 C54.8230892,8.75835248 54.8055538,8.74754714 54.7881056,8.73764226 C54.6807992,8.79076847 54.5708756,8.83759158 54.4679313,8.89792136 C54.1451397,9.08881557 54.0230896,9.38416133 54.0675825,9.75694531 C54.1006468,10.0360831 54.3082803,10.1810546 54.5368516,10.086508 C54.6755647,10.0288795 54.7506792,9.90551863 54.7655102,9.76504931 C54.801279,9.43368577 54.8168951,9.10052135 54.8404501,8.76825737 L54.8404501,8.76825737 Z M55.9467527,10.9788483 L54.9477565,10.9788483 C54.9251611,10.8455826 54.9033509,10.716819 54.8797086,10.5745488 C54.7802539,10.6708964 54.699207,10.7627417 54.6066444,10.8392795 C54.0535367,11.2985061 53.3634608,11.0860012 53.1497204,10.3908582 C53.1149113,10.2774022 53.0790553,10.1576431 53.0782701,10.0405853 C53.0747805,9.80196753 53.0729484,9.55884754 53.1095896,9.324732 C53.168041,8.95464935 53.380909,8.67461115 53.6845075,8.47831427 C53.8685859,8.35855517 54.0727297,8.27301295 54.2611702,8.15955696 C54.4129695,8.06861207 54.5647687,7.97316497 54.697375,7.85700764 C54.842195,7.73004498 54.8570259,7.5499561 54.8116606,7.36626545 C54.7759791,7.22039345 54.6834164,7.13575168 54.5368516,7.12134457 C54.3963937,7.1078379 54.2602978,7.1807739 54.2131877,7.32124323 C54.1695672,7.45000677 54.1548235,7.58867521 54.1251616,7.73274631 L53.1655111,7.73274631 C53.1261654,6.69453393 53.6330353,6.17497751 54.5281275,6.19658818 C54.699207,6.2010904 54.8727293,6.21999973 55.0377019,6.26232062 C55.5105479,6.38207972 55.7931214,6.73505393 55.8254005,7.23660145 C55.8419763,7.49953122 55.849828,7.76336142 55.8524452,8.02719163 C55.8576797,8.75204937 55.8515728,9.4769071 55.864659,10.2017648 C55.8699807,10.4583915 55.9170035,10.7141177 55.9467527,10.9788483 L55.9467527,10.9788483 Z M46.6582082,8.73223959 C46.4051222,8.82408492 46.197576,8.92223336 46.0491791,9.11943068 C45.8860385,9.33553733 45.8537594,9.5822591 45.9183177,9.84158708 C45.9584485,10.0036671 46.0718618,10.1036164 46.2070853,10.1144217 C46.3510328,10.1261275 46.491578,10.0405853 46.5543043,9.89741463 C46.5796041,9.84068664 46.6066488,9.78035686 46.6101385,9.72092753 C46.6294187,9.40126977 46.6424176,9.08161201 46.6582082,8.73223959 L46.6582082,8.73223959 Z M47.7617191,10.9851515 C47.4790584,10.9851515 47.1728426,10.9887532 46.8657545,10.9806492 C46.8300729,10.9797488 46.7741515,10.9257221 46.7628101,10.8861026 C46.7366379,10.7915559 46.7314906,10.6907061 46.7139552,10.5610422 C46.6625703,10.6186706 46.6302911,10.6555888 46.5971396,10.692507 C46.4164636,10.8897044 46.2062129,11.0346759 45.9384704,11.0634901 C45.4541958,11.1157159 45.120063,10.8734964 44.972713,10.3665462 C44.8818952,10.054092 44.8741307,9.73353375 44.9212408,9.41207511 C45.0015025,8.86460492 45.3451446,8.53594271 45.8015021,8.30362806 C45.9384704,8.23249295 46.0832031,8.17576495 46.2140645,8.0956254 C46.3335846,8.02268941 46.4504875,7.93894808 46.5465398,7.83809831 C46.6938898,7.68502276 46.6982518,7.49502899 46.6224394,7.30233389 C46.5718397,7.17627168 46.4697678,7.12134457 46.344926,7.12134457 C46.2158966,7.12134457 46.1015237,7.17357035 46.0526688,7.30413478 C46.0169,7.40048233 45.9977942,7.50673477 45.9881105,7.60938543 C45.9794736,7.70303165 45.9549589,7.74625298 45.8546318,7.74355165 C45.5720584,7.73724854 45.2893104,7.74175076 45.0075221,7.74175076 C44.9447086,6.89623347 45.3216768,6.26412151 46.1347625,6.20559262 C46.3510328,6.19028507 46.5743697,6.19928951 46.7872376,6.24070995 C47.3421773,6.34966373 47.6517955,6.73235259 47.6648816,7.33474989 C47.6841619,8.16946184 47.6763102,9.00507424 47.6919263,9.83978619 C47.6989928,10.2170724 47.7372916,10.5934581 47.7617191,10.9851515 L47.7617191,10.9851515 Z M34.3335913,5.96742508 L34.3335913,4.78694248 L31.7605938,4.78694248 L31.7605938,10.9728154 L32.8668964,10.9728154 L32.8668964,8.34937063 L34.2235805,8.34937063 L34.2235805,7.11702244 L32.8716946,7.11702244 L32.8716946,5.96742508 L34.3335913,5.96742508 Z M62.6703258,8.51613294 C62.6467708,8.2414974 62.6293226,7.9110343 62.5865745,7.58417299 C62.5630195,7.40498455 62.4531831,7.31764145 62.3223217,7.31584056 C62.1861385,7.31403967 62.1023872,7.39327878 62.0501299,7.57606899 C62.0404461,7.61208676 62.0318093,7.64990543 62.0274472,7.68772409 C61.9515476,8.33424317 61.9645465,8.98166269 62.0107842,9.6290822 C62.0177635,9.72723064 62.0422782,9.8298813 62.0831942,9.91812485 C62.1652879,10.0991142 62.3807731,10.1198244 62.4914819,9.95684396 C62.5446989,9.87760486 62.5830849,9.77405375 62.591809,9.67860665 C62.6249605,9.31122533 62.6432811,8.94204313 62.6703258,8.51613294 L62.6703258,8.51613294 Z M63.6099109,4.79189493 L63.6099109,10.9770475 L62.7079267,10.9770475 L62.7079267,10.4890066 C62.6223433,10.6141684 62.5638919,10.716819 62.4898243,10.805963 C62.0727253,11.3066101 61.3661608,11.1877514 61.1445688,10.5691462 C61.0650923,10.3476368 61.0153649,10.1036164 61.0102177,9.86860041 C60.9918971,9.17886001 60.9891926,8.48731871 61.0102177,7.79667787 C61.0205994,7.46891611 61.0729439,7.13665213 61.1523332,6.81879525 C61.2578948,6.39018372 61.5676002,6.19208596 61.9898464,6.2254024 C62.1782868,6.23980951 62.3248517,6.33345573 62.4434993,6.47752683 C62.5002932,6.54686105 62.5473161,6.62519971 62.630195,6.69993659 L62.630195,4.79189493 L63.6099109,4.79189493 Z M44.3765083,7.62874499 C44.3751125,7.39967193 44.3574898,7.16636679 44.3091583,6.94368689 C44.271383,6.7710717 44.2028988,6.58909189 44.0978607,6.45204425 C43.8507943,6.13040552 43.3409582,6.16129076 43.038581,6.49994789 C42.945146,6.60439944 42.8722125,6.7281205 42.7800861,6.85733427 C42.739519,6.77053143 42.7084613,6.69606468 42.6712966,6.62546984 C42.5737612,6.44141901 42.4387995,6.30464151 42.2327363,6.25448675 C41.9265206,6.17947974 41.6226603,6.30842337 41.4110138,6.60980211 C41.3591054,6.68399873 41.3121698,6.76188717 41.2394981,6.87354227 L41.2394981,6.32373093 C40.9937403,6.32373093 40.7570556,6.33210506 40.5216795,6.32021919 C40.3867177,6.31355591 40.3609816,6.36524141 40.3612414,6.49247421 C40.3651692,7.93309519 40.3637734,9.37380622 40.3637734,10.8144272 L40.3637734,10.9719149 L41.3003922,10.9719149 L41.3003922,10.7864234 C41.3003922,9.88841019 41.2995198,8.990397 41.3017009,8.0923838 C41.3020498,7.96803243 41.3037074,7.8398992 41.3319735,7.72050027 C41.3624206,7.59299734 41.4090945,7.46234286 41.4803703,7.35555016 C41.5172733,7.30044296 41.6312972,7.26091345 41.6964662,7.27685132 C41.7606755,7.29215887 41.8302938,7.37698073 41.8565533,7.44757557 C41.8903156,7.53843041 41.8923221,7.64522312 41.8929328,7.74526249 C41.8971204,8.76330492 41.8981673,9.7814374 41.9001738,10.7993898 C41.9004355,10.8556676 41.9001738,10.9119453 41.9001738,10.9713747 L42.834001,10.9713747 L42.834001,10.7853428 C42.8345244,9.84392824 42.8272834,8.90269371 42.8423761,7.96163928 C42.8454296,7.76813378 42.9191482,7.57165681 42.9843172,7.38526482 C43.0186901,7.28747656 43.1304458,7.22633639 43.2278067,7.27451016 C43.2999549,7.30998767 43.3736735,7.3985914 43.3932155,7.47765042 C43.4276757,7.61460801 43.4289843,7.76264107 43.429246,7.90599181 C43.4320377,8.8712682 43.4307291,9.83645455 43.4307291,10.8017309 L43.4307291,10.9759669 L44.3692673,10.9759669 C44.3731059,10.9251819 44.3790383,10.8833112 44.3790383,10.8415306 C44.379649,9.77072211 44.3832259,8.69955346 44.3765083,7.62874499 L44.3765083,7.62874499 Z M56.590242,17.4490816 C56.0736883,17.2281125 55.5647245,17.1811093 55.0700683,17.5088711 C54.942871,17.5930626 54.8203847,17.6850881 54.6767861,17.7866582 C54.6898723,17.6452884 54.7005157,17.5276003 54.7130783,17.3925337 L52.2264494,17.3925337 C51.916744,19.9998605 51.6076493,22.6039456 51.2974205,25.2161348 L53.8430243,25.2161348 C53.8832424,24.8710845 53.9221519,24.533598 53.9623699,24.1965616 C54.080058,23.2160677 54.2192945,22.237825 54.3101124,21.2547198 C54.3897634,20.3929945 54.9657282,19.8656942 55.7573526,19.769887 C55.9727505,19.743684 56.1905039,19.7401723 56.413579,19.7257652 C56.4367851,19.5339705 56.459904,19.3437967 56.4828484,19.1534427 C56.5430446,18.6491939 56.6039388,18.1446749 56.662652,17.6397957 C56.6712016,17.5659593 56.6880391,17.4909522 56.590242,17.4490816 L56.590242,17.4490816 Z M61.7577854,17.4485413 C61.2407083,17.2275723 60.7320063,17.1817396 60.2376118,17.5096815 C60.1107635,17.5939631 59.9883644,17.6856283 59.8458127,17.7866582 C59.8582881,17.6418667 59.8687571,17.5206669 59.8799239,17.3922635 L57.395127,17.3922635 C57.0854216,20.0006709 56.7763269,22.604756 56.4664471,25.2157746 L59.0070781,25.2157746 C59.0185067,25.1364455 59.030197,25.0661208 59.0388338,24.9954359 C59.0913529,24.5574598 59.1434358,24.1195736 59.1954314,23.6816875 C59.2923561,22.8675958 59.3980049,22.0546746 59.4829775,21.2394122 C59.5587027,20.5147346 59.9564342,19.9986899 60.6420609,19.8313873 C60.9413846,19.7580911 61.2549286,19.7465654 61.5850484,19.7038844 C61.6058117,19.5327999 61.6291923,19.342356 61.6518749,19.1522721 C61.7119839,18.6477532 61.7726164,18.1431441 61.8315913,17.638355 C61.8402281,17.5638882 61.8556698,17.4903219 61.7577854,17.4485413 L61.7577854,17.4485413 Z M65.3216657,19.307959 C64.9848284,19.2548328 64.6786126,19.4808443 64.6253956,19.8356194 C64.5286454,20.4848398 64.4395724,21.1358611 64.3479694,21.7850815 C64.2965845,22.1506619 64.2458975,22.5162424 64.1961701,22.878221 C64.206639,22.9448539 64.2101287,23.0087854 64.2267045,23.0673143 C64.3078386,23.3509543 64.5722659,23.542749 64.8496049,23.5211383 C65.1436069,23.4977267 65.3722654,23.2654121 65.4175435,22.9421526 C65.5537266,21.9741748 65.6897353,21.0052967 65.8258312,20.0373189 C65.8755585,19.688847 65.6488193,19.3601848 65.3216657,19.307959 L65.3216657,19.307959 Z M68.2660632,19.696951 C68.2642158,20.1030514 68.2110861,20.5100522 68.1752301,20.9161527 C68.132482,21.39699 68.0950556,21.8796282 68.0331146,22.3577641 C67.9598322,22.9232432 67.7939871,23.4608085 67.5121988,23.9560529 C67.0201598,24.8240813 66.2829738,25.3085204 65.3251553,25.4462884 C65.1226691,25.4751026 64.9177401,25.4868084 64.7868786,25.4994146 C64.2101287,25.4769035 63.710238,25.4354831 63.2356472,25.2400866 C62.3406423,24.8709044 61.8563677,24.1739605 61.7011661,23.2095845 C61.6042414,22.6080877 61.6731617,22.0119935 61.7412097,21.4158993 C61.7945139,20.9539713 61.8529653,20.4929438 61.9287777,20.0346176 C62.009999,19.5501785 62.2123108,19.1107617 62.4836302,18.7100639 C63.3490605,17.429632 64.5460064,16.9541973 66.0257002,17.1712044 C66.4452419,17.2324347 66.8439331,17.3575964 67.2034531,17.5890106 C67.9571277,18.0743502 68.2685779,18.8100132 68.2660632,19.696951 L68.2660632,19.696951 Z M48.0670624,19.9985998 C48.0714245,19.6096079 47.8376187,19.3313705 47.5200616,19.3034568 C47.1850564,19.2746425 46.9067577,19.5078576 46.8570304,19.8617323 C46.7191897,20.82971 46.5830938,21.7976877 46.4461255,22.7656655 C46.3929085,23.1411508 46.6136281,23.4563063 46.9739333,23.5175365 C47.2871283,23.5706627 47.5969209,23.3212396 47.6509231,22.9583606 C47.7461029,22.3145428 47.8350015,21.6680237 47.9257321,21.0224051 C47.9754594,20.6667296 48.0243143,20.311054 48.0670624,19.9985998 L48.0670624,19.9985998 Z M50.3972683,21.0818344 C50.3614995,21.4582202 50.3380317,21.8364068 50.2935388,22.2118922 C50.2211288,22.821493 50.0596458,23.4040805 49.7596242,23.9407454 C49.2701152,24.8150769 48.5303119,25.3040182 47.5681314,25.4471889 C47.4991238,25.4570937 47.4294183,25.4697 47.3604979,25.4751026 C47.2261469,25.4850075 47.0908361,25.4913106 46.9800401,25.4976137 C46.4479575,25.4769035 45.9436176,25.4354831 45.4655371,25.2355844 C44.5538692,24.8564973 44.0731715,24.1388432 43.9328008,23.1573588 C43.8603908,22.6486077 43.8961596,22.140757 43.9581007,21.6347073 C44.025189,21.0881375 44.0679371,20.5352647 44.1787331,19.9967989 C44.4666282,18.602911 45.6853844,17.0460427 47.7320572,17.1189787 C48.2668442,17.1387884 48.7850555,17.235136 49.2666255,17.4899618 C50.0125357,17.8843564 50.3963959,18.5290746 50.4914885,19.3754923 C50.5561341,19.9508763 50.4522301,20.5145545 50.3972683,21.0818344 L50.3972683,21.0818344 Z M41.9194541,17.2030802 C41.4320388,17.1118652 40.9557905,17.1817396 40.4870448,17.3204981 C40.3016578,17.3756053 40.1231628,17.4552046 39.9212872,17.531022 C40.0557255,16.3929504 40.1888552,15.2671247 40.3232936,14.1295933 L37.8357922,14.1295933 C37.3982788,17.8264578 36.9617251,21.5149482 36.5235138,25.2155045 L39.0065658,25.2155045 C39.0172092,25.1437391 39.0275037,25.0825089 39.0347447,25.0208284 C39.1038395,24.4349093 39.1719747,23.8489901 39.2409823,23.2634311 C39.3587576,22.2680799 39.4797608,21.273449 39.5940464,20.2776476 C39.6323452,19.9450234 39.6887901,19.6207734 39.9034901,19.354512 C40.0532828,19.1687503 40.2791496,19.1061694 40.4531953,19.1891904 C40.6030753,19.2607757 40.6742639,19.4398741 40.6435551,19.688847 C40.5585824,20.3739951 40.4714287,21.0588731 40.383926,21.7436611 C40.2774048,22.5756717 40.169226,23.4075923 40.0621814,24.239873 C40.0205674,24.5618719 39.9797387,24.8837808 39.9372523,25.2161348 L42.5762912,25.2161348 C42.6635322,24.5679049 42.74929,23.9275089 42.8351351,23.2870228 C42.9516018,22.4175537 43.0679812,21.5480845 43.1841862,20.6786154 C43.2496169,20.1891339 43.3244696,19.701003 43.3778611,19.2099906 C43.4828992,18.2449844 42.8464764,17.3766859 41.9194541,17.2030802 L41.9194541,17.2030802 Z M32.7126544,20.6658291 C32.6690339,19.8455243 32.6272455,19.0423279 32.5844974,18.2391315 C32.5731561,18.238231 32.5608551,18.2364302 32.5486414,18.2346293 C32.1482926,19.040527 31.7478567,19.8464247 31.3413138,20.6658291 L32.7126544,20.6658291 Z M35.5428382,25.2157746 L32.9560566,25.2157746 C32.937736,24.9132253 32.9177579,24.6178796 32.9019673,24.3216334 C32.8792846,23.8858183 32.8548571,23.4491027 32.841771,23.0123872 C32.8374089,22.886325 32.7981505,22.8521081 32.6778452,22.8530086 C31.9091652,22.8584112 31.1405724,22.8575108 30.372852,22.8530086 C30.2795914,22.8530086 30.2332665,22.8854246 30.191478,22.9691659 C29.839897,23.6832183 29.4829942,24.3954698 29.1296684,25.1077213 C29.0973892,25.1734538 29.0721766,25.2283809 28.9796139,25.2274913 C28.1647834,25.2238786 27.3508253,25.2247791 26.5359948,25.2238786 C26.5176742,25.2238786 26.500226,25.218476 26.4679468,25.2121729 C26.4871399,25.1680511 26.5010984,25.129332 26.5185466,25.0933142 C28.287008,21.4744282 30.0561673,17.8564426 31.8227966,14.2366562 C31.8672895,14.1439104 31.9205065,14.1177975 32.0155992,14.1177975 C33.0075288,14.1204988 33.9985861,14.1213993 34.990603,14.1168971 C35.103929,14.1168971 35.1432746,14.1502135 35.1475494,14.2690722 C35.1728493,15.089377 35.2052157,15.9096818 35.2356628,16.7308871 C35.2880946,18.1562906 35.3420968,19.5807936 35.3944413,21.0061971 C35.4259353,21.8463117 35.4563824,22.6864263 35.4869167,23.5256405 C35.5052373,24.0343916 35.5244304,24.5431427 35.5428382,25.0518938 C35.5444958,25.1032191 35.5428382,25.1554449 35.5428382,25.2157746 L35.5428382,25.2157746 Z" id="Fill-13"></path>
                    <path d="M14.9168082,4.96694132 C14.9061648,4.96640105 14.8958704,4.96586078 14.885227,4.9655006 C13.0374636,8.83831194 11.1897002,12.7111233 9.33722573,16.5932092 L17.3486498,16.5932092 C16.5366983,12.7117536 15.7267533,8.83921238 14.9168082,4.96694132 L14.9168082,4.96694132 Z M11.0186207,1.68356088 C8.80671349,2.75238838 6.86001882,4.2028242 5.1679805,6.01757983 C3.586302,7.71419716 2.32130815,9.6339446 1.36994554,11.7742109 C0.534264435,13.6541587 0.0335885954,15.6155967 0.00174564692,17.6926518 C-0.0205880375,19.1595657 0.170033449,20.5920827 0.651254555,21.9775965 C0.698800875,22.1141039 0.755333014,22.2473697 0.819280634,22.4126913 C4.28641066,15.464142 7.73626697,8.55071 11.2028735,1.60333129 C11.1172902,1.64024951 11.0673011,1.66014933 11.0186207,1.68356088 L11.0186207,1.68356088 Z M18.1831968,25.3190556 C18.0557378,24.6264338 17.9473845,23.9303002 17.8316158,23.2356974 C17.7298928,22.6258264 17.6276464,22.0163156 17.5236552,21.3955493 L7.22564566,21.3955493 C6.37033534,23.2613601 5.51511226,25.1280714 4.65622506,27.0023464 C4.71153583,27.0335017 4.75480734,27.0600649 4.79956195,27.0833864 C6.17919041,27.8005903 7.65103256,28.1262811 9.18682233,28.1516736 C10.4772905,28.1732843 11.7473443,27.9909443 12.9980307,27.6672345 C14.7661431,27.2100789 16.4442229,26.5179973 18.0382024,25.6061173 C18.1547563,25.5394844 18.212597,25.4791546 18.1831968,25.3190556 L18.1831968,25.3190556 Z M27.5924828,10.1552119 C27.4768012,12.0456949 26.9613817,13.8316363 26.2425162,15.5624705 C25.6248503,17.0490141 24.8671626,18.4559585 23.977741,19.7878058 C23.9389188,19.8460646 23.8969559,19.9026125 23.8365852,19.9883348 C22.3326383,13.3077577 20.8375901,6.66698033 19.3366967,0 C19.4267294,0.0108953772 19.5021928,0.017018399 19.5765221,0.0290843539 C21.5109158,0.349372424 23.2356695,1.13888207 24.7000089,2.49387079 C25.7852864,3.49804638 26.5376524,4.73390631 27.0524612,6.1370688 C27.5293203,7.43722046 27.6766703,8.77888261 27.5924828,10.1552119 L27.5924828,10.1552119 Z" id="Fill-13"></path>
                </g>
            </g>
        </g>
    </g>
</svg>