<?xml version="1.0" encoding="UTF-8"?>
<svg width="95px" height="19px" viewBox="0 0 95 19" version="1.1" xmlns="http://www.w3.org/2000/svg" xmlns:xlink="http://www.w3.org/1999/xlink">
    <title>9F360DB1-824E-4CEB-92DA-B22BC917A1CF</title>
    <g id="VTEX" stroke="none" stroke-width="1" fill="none" fill-rule="evenodd">
        <g id="vtex-pago-efectivo-logos" transform="translate(-449.000000, -387.000000)" fill="#435365">
            <g id="Group" transform="translate(449.000000, 387.000000)">
                <g id="Fill-6" transform="translate(0.000000, 0.982919)">
                    <path d="M18.8767953,7.48769849 C18.8738757,7.3787519 18.6781414,7.18408827 18.5704642,7.18304295 C16.7833963,7.16353012 14.9963283,7.16945366 13.1623122,7.16945366 L13.1623122,10.3434232 C14.9953941,10.3434232 16.7970603,10.3483014 18.597909,10.3308792 C18.6967104,10.3298339 18.8748099,10.1478303 18.8778464,10.0465495 C18.9002694,9.1939089 18.9022548,8.3403391 18.8767953,7.48769849 L18.8767953,7.48769849 Z M42.6568743,14.2766505 C42.6607282,13.9681621 42.5579561,13.8552664 42.2330558,13.8610738 C41.1750864,13.8786121 40.1161827,13.8679266 39.0582133,13.8668812 C38.4182229,13.8668812 38.4162376,13.8668812 38.4162376,13.2420063 C38.4162376,9.17939043 38.4162376,5.11572919 38.4151865,1.05299713 C38.4151865,0.849622422 38.3975517,0.646247716 38.3887927,0.442756863 L33.0843473,0.442756863 L33.0843473,17.4955691 C36.2111906,17.4955691 39.2715823,17.4925493 42.3318573,17.499402 C42.6558232,17.499402 42.6519692,17.298931 42.6529035,17.0818509 C42.6539546,16.1474422 42.6450788,15.2119883 42.6568743,14.2766505 L42.6568743,14.2766505 Z M53.1424386,0.392047594 C50.3091967,0.415462142 47.475838,0.403847367 44.6425961,0.404776549 C44.4841168,0.404776549 44.3244695,0.419411165 44.1385453,0.429167576 L44.1385453,17.4478324 C44.2188945,17.4682744 44.2638573,17.4906909 44.3098712,17.4906909 C47.3222637,17.4934785 50.3346562,17.4906909 53.3470486,17.5012646 C53.6905179,17.5023057 53.7023134,17.3096166 53.7023134,17.0662871 C53.700328,16.1474422 53.6875983,15.2276682 53.7081527,14.3097526 C53.7169117,13.9330854 53.5632206,13.8542211 53.2158973,13.8601447 C52.125578,13.8795413 51.0344412,13.8552664 49.9431876,13.8746631 C49.5917769,13.8805867 49.4459105,13.7930113 49.4577059,13.4191317 C49.48118,12.6297916 49.477326,11.838477 49.4586402,11.0491369 C49.4508155,10.71045 49.5702881,10.604291 49.9099035,10.6100984 C51.0333901,10.6276367 52.1568768,10.6053363 53.2804803,10.6228746 C53.6043294,10.6276367 53.7101381,10.5157864 53.705233,10.2071818 C53.6925033,9.45001468 53.6846786,8.69075686 53.709087,7.93451887 C53.7208824,7.54031342 53.5622863,7.44391079 53.1913722,7.4507635 C52.1011696,7.47016018 51.009916,7.44878899 49.9186625,7.4614491 C49.5848865,7.46539812 49.4518666,7.35633538 49.4596913,7.01567404 C49.476275,6.22633395 49.4802457,5.43501935 49.4577059,4.64556311 C49.4469615,4.26599227 49.5781128,4.13753286 49.962691,4.14426943 C51.0372441,4.16378225 52.111914,4.13369998 53.1864671,4.15890404 C53.6014098,4.16866045 53.718897,4.02266274 53.709087,3.63043179 C53.6865472,2.74468907 53.6836275,1.85697184 53.7101381,0.970299932 C53.7218167,0.544037698 53.6122709,0.388283569 53.1424386,0.392047594 L53.1424386,0.392047594 Z M78.0019757,13.8668812 C76.9107221,13.8668812 75.8195853,13.8571248 74.7272806,13.8728048 C74.4151102,13.877683 74.2878128,13.7890622 74.2937689,13.4668684 C74.308484,12.6444262 74.3074329,11.8210548 74.2947032,10.9984965 C74.2897982,10.7035973 74.4033147,10.604291 74.6969161,10.6120729 C75.3488187,10.6276367 76.0006045,10.6160219 76.651456,10.6160219 L78.5393107,10.6160219 L78.5393107,7.45750007 C77.294366,7.45750007 76.0895958,7.43612889 74.8858768,7.46725648 C74.4023804,7.47991659 74.2673752,7.31254768 74.2888639,6.85701622 C74.3221481,6.16500794 74.3250677,5.46905064 74.2888639,4.77704236 C74.2634044,4.30002356 74.3965411,4.12103988 74.9093509,4.13950737 C75.9506198,4.17748768 76.9938741,4.15216747 78.0361942,4.14914763 C78.2084543,4.14914763 78.3807145,4.12975096 78.5520404,4.11906537 L78.5520404,0.440782351 L68.9853527,0.440782351 L68.9853527,17.4614217 L78.5529747,17.4614217 L78.5529747,13.8668812 L78.0019757,13.8668812 Z M27.3482587,4.14624394 C28.4395123,4.15890404 29.5307659,4.15216747 30.6229538,4.14914763 C30.7942796,4.14914763 30.9654887,4.12882178 31.1308585,4.11802004 L31.1308585,0.428122246 L21.5632365,0.428122246 L21.5632365,17.4546851 L31.1270045,17.4546851 L31.1270045,13.8474845 L26.9480311,13.8474845 L26.9480311,10.6160219 L31.1240849,10.6160219 L31.1240849,7.45750007 L30.5583708,7.45750007 C29.4994671,7.45750007 28.4405633,7.44878899 27.3815428,7.46237828 C27.0575769,7.4663273 26.9040026,7.37677739 26.9098419,7.03030866 C26.9254913,6.20775031 26.9225717,5.38530811 26.9118273,4.56193673 C26.9069223,4.24647945 27.0360882,4.14241106 27.3482587,4.14624394 L27.3482587,4.14624394 Z M63.6976077,0.438923987 C63.0026109,4.22998647 62.3127527,7.98701765 61.623712,11.7450942 C61.5826032,11.7420743 61.5425454,11.740216 61.5014365,11.7373123 C61.4592765,11.5202321 61.4132626,11.3040812 61.3750734,11.0860719 C60.7996661,7.87121835 60.2310323,4.65531952 59.6497856,1.44232438 C59.461876,0.400943674 59.4471609,0.403847322 58.3803157,0.403847322 L54.765071,0.403847322 C54.871814,1.05299713 54.9657103,1.60586041 55.0538842,2.1606982 C55.8397409,7.15191535 56.6275831,12.1422033 57.4007101,17.1343497 C57.446724,17.4322686 57.5602405,17.5012604 57.8352729,17.5003312 C59.9041467,17.4925493 61.9720863,17.4906909 64.041077,17.503261 C64.3523132,17.5052094 64.4570707,17.3952175 64.5127779,17.1013637 C65.5414339,11.6973574 66.5807175,6.29439653 67.6142785,0.891435611 C67.6425409,0.741488869 67.6337819,0.585850888 67.6416066,0.438923987 L63.6976077,0.438923987 Z M94.3264008,3.22646993 C94.3264008,1.67891734 93.5845726,0.651009774 92.0802449,0.227651234 C90.1572375,-0.314526451 88.3858189,0.162492348 86.7063115,1.12210504 C86.5351024,1.22048218 86.3638933,1.31688481 86.1367434,1.44534422 C86.1191086,1.04521523 86.1054446,0.746367075 86.0897952,0.403847367 L81.5644329,0.403847367 C80.9301651,0.403847367 80.9282965,0.404776549 80.9282965,1.03847866 C80.9272454,5.69972006 80.9272454,10.3609615 80.9272454,15.0232482 C80.9272454,15.6841289 80.9419605,16.3460549 80.9223404,17.0069356 C80.9106617,17.372801 81.0192732,17.5169403 81.4185665,17.5061386 C82.3786688,17.4780308 83.3397053,17.4964983 84.3007419,17.4964983 L86.1142036,17.4964983 L86.1142036,16.8394505 C86.1142036,13.1291107 86.1132693,9.41981627 86.1152547,5.71040565 C86.1163058,4.90643095 86.5654669,4.35356767 87.3004047,4.22801195 C88.4846204,4.02661176 89.1393258,4.56681493 89.1403769,5.74838597 C89.1403769,9.45872576 89.1472673,13.1680202 89.1315011,16.8774308 C89.1296325,17.339815 89.2166385,17.5451642 89.7452145,17.5100876 C90.5075971,17.458518 91.2758191,17.4964983 92.0411214,17.4964983 L94.3273351,17.4964983 L94.3273351,16.8715073 C94.3273351,12.3231615 94.3273351,7.77481572 94.3264008,3.22646993 L94.3264008,3.22646993 Z"></path>
                    <path d="M10.8173549,0.382476182 C10.5805118,0.53521047 10.4680463,0.611171097 10.3514934,0.681208188 C8.72500697,1.67113544 7.16789179,2.74074005 5.97094635,4.25240298 C5.86922526,4.38086239 5.60493728,4.43347732 5.41504234,4.4344065 C3.60940536,4.4499703 1.80470268,4.44706661 0,4.44892497 L0,0.382476182 L10.8173549,0.382476182 Z"></path>
                    <path d="M10.2086634,1.37228729 C7.36654572,3.09022862 5.29066465,5.44280124 4.67227983,8.74523015 C4.26411081,10.9235812 4.1564336,13.1573346 3.95287463,15.3697169 C3.88630629,16.097731 3.94306456,16.8365468 3.94306456,17.5791955 L8.76599905,17.5791955 C8.76599905,16.8336431 8.74649569,16.1416349 8.76996979,15.4514849 C8.83256739,13.6157698 8.86001223,11.7771509 9.00389327,9.94828852 C9.13504457,8.26728217 9.68405818,6.72065876 11.0845626,5.62573395 C11.5640882,5.25104131 12.1268826,4.98041706 12.6700569,4.65148664 L12.6700569,0.0621406941 C11.8018656,0.521621183 10.9808561,0.906070227 10.2086634,1.37228729 L10.2086634,1.37228729 Z"></path>
                </g>
            </g>
        </g>
    </g>
</svg>