<?xml version="1.0" encoding="UTF-8"?>
<svg width="92px" height="28px" viewBox="0 0 92 28" version="1.1" xmlns="http://www.w3.org/2000/svg" xmlns:xlink="http://www.w3.org/1999/xlink">
    <title>F0DCD011-2AB4-44EB-8BFE-1C3A2F26BA1A</title>
    <defs>
        <polygon id="path-1" points="0 0 62.6530349 0 62.6530349 17.7215911 0 17.7215911"></polygon>
    </defs>
    <g id="VTEX" stroke="none" stroke-width="1" fill="none" fill-rule="evenodd">
        <g id="vtex-pago-efectivo-logos" transform="translate(-485.000000, -439.000000)">
            <g id="Group" transform="translate(449.000000, 387.000000)">
                <g id="Group-10" transform="translate(36.835443, 52.300550)">
                    <g id="Group-3" transform="translate(0.000000, 9.765271)">
                        <mask id="mask-2" fill="white">
                            <use xlink:href="#path-1"></use>
                        </mask>
                        <g id="Clip-2"></g>
                        <path d="M60.777568,15.5712256 C60.8162757,15.5615827 60.8844636,15.5518193 60.9816523,15.5518193 C61.2148573,15.5518193 61.321753,15.6494536 61.321753,15.7961461 C61.321753,15.962245 61.156616,16.03083 60.952292,16.03083 L60.777568,16.03083 L60.777568,15.5712256 Z M60.7676214,16.2945632 L60.9427049,16.2945632 C61.1466694,16.2945632 61.2438582,16.3727912 61.2730987,16.548774 C61.321753,16.7342792 61.3508736,16.8809717 61.3994081,16.9397934 L61.7978699,16.9397934 C61.7589225,16.8809717 61.729682,16.7832169 61.6811476,16.5388901 C61.6324933,16.323974 61.5452511,16.2065718 61.3895814,16.1478707 L61.3895814,16.1284644 C61.5839588,16.0698838 61.7199751,15.9329547 61.7199751,15.7569718 C61.7199751,15.6006364 61.6520269,15.4734707 61.564545,15.4051267 C61.4480624,15.3366622 61.3119262,15.2877245 61.0106531,15.2877245 C60.7483274,15.2877245 60.5443629,15.3074924 60.3985199,15.3366622 L60.3985199,16.9397934 L60.7676214,16.9397934 L60.7676214,16.2945632 Z M61.0204799,14.8188387 C61.729682,14.8188387 62.2447463,15.3954838 62.2447463,16.108817 C62.2447463,16.8126277 61.729682,17.3795094 61.0301868,17.3795094 C60.3110381,17.3795094 59.7863867,16.8126277 59.7863867,16.0990535 C59.7863867,15.3954838 60.3110381,14.8188387 61.0204799,14.8188387 L61.0204799,14.8188387 Z M61.0204799,14.4961634 C60.1070735,14.4961634 59.3780981,15.2097376 59.3780981,16.0990535 C59.3780981,17.0081374 60.1070735,17.7215911 61.0204799,17.7215911 C61.9435931,17.7215911 62.6530349,17.0081374 62.6530349,16.0990535 C62.6530349,15.2097376 61.9435931,14.4961634 61.0204799,14.4961634 L61.0204799,14.4961634 Z M43.9721858,3.80400136 L46.260615,3.80400136 L49.8128572,0.231067861 L47.2263906,0.231067861 L43.9721858,3.80400136 Z M59.1820429,6.28089937 L59.0743084,6.15204619 C58.3158528,5.24549356 57.1559394,4.78576857 55.6266849,4.78576857 C53.7271305,4.78576857 52.3882988,5.69666049 51.7547145,7.41984575 C51.6663938,7.66670385 51.604078,7.90030297 51.568486,8.11618327 C51.3975968,9.15592838 51.7782028,10.1091285 52.6997581,10.9490246 L52.7128205,10.9610782 L52.7245646,10.971806 L52.7376269,10.9812078 L52.7522472,10.991815 C53.4936858,11.5257902 54.2358434,12.0650691 54.9577484,12.594464 C55.5504678,13.0814302 55.8149506,13.5479052 55.7436469,13.9812328 C55.7296259,14.066693 55.7061376,14.1540817 55.6739011,14.2408677 C55.3375155,15.1788803 54.7996819,15.595815 53.9288181,15.595815 C53.0553179,15.595815 52.3216688,15.2848316 51.6859274,14.6447845 L51.1450979,14.1004431 L50.775517,13.728589 L50.6732951,14.2344793 L50.5083978,15.0507504 L50.2953256,16.1048393 L50.2554195,16.302157 L50.2248608,16.4531888 L50.3446989,16.5546803 L50.4869468,16.6750959 C51.0177099,17.1244548 51.7482432,17.439898 52.6585338,17.612988 C52.9746668,17.6850686 53.3074573,17.7215911 53.6473183,17.7215911 C54.5923619,17.7215911 55.4476467,17.4817241 56.1895647,17.0083785 C57.0005094,16.5179168 57.5881956,15.8001238 57.9303335,14.8789863 C58.0451385,14.5530565 58.124711,14.2548499 58.1685717,13.9887061 C58.2938026,13.2269174 58.1197976,12.5100887 57.6512305,11.8584701 C57.228801,11.2717 56.4562045,10.6099563 55.2894604,9.83514976 C54.2112766,9.13676312 53.8768083,8.59242173 53.9223468,8.31518851 C53.9298966,8.26926422 53.9514675,8.18344246 54.0113866,8.03506242 L54.0127048,8.03156687 L54.014023,8.02819186 C54.2934856,7.27604608 54.739643,6.9692815 55.554063,6.9692815 C55.7148858,6.9692815 55.8942835,6.98555389 56.0875824,7.01761651 C56.5888653,7.09801414 56.830459,7.19058593 56.9451441,7.25398796 L56.9542518,7.25905048 L56.9610826,7.2627871 L56.9681531,7.26628265 L56.9771409,7.27050142 C57.1277775,7.34246152 57.3830327,7.51543094 57.7455431,7.9310397 L58.2396358,8.49743921 L58.5827324,8.89074878 L58.719228,8.39365756 L58.9380525,7.59655179 L59.1853984,6.6957849 L59.2342924,6.51775296 L59.2703636,6.38648906 L59.1820429,6.28089937 Z M17.6233733,11.3992273 L18.2327503,7.12597854 C17.1470167,7.03461211 16.467894,6.98832622 16.2119197,6.98832622 L16.2000557,6.98832622 L16.1887909,6.98832622 L16.1777658,6.98736193 L16.1660217,6.98651817 C16.0930402,6.98085297 16.0194596,6.97796011 15.9475567,6.97796011 C15.2036016,6.97796011 14.4967962,7.27194785 13.7899908,7.87414662 C13.3295727,8.27854551 12.9203254,8.85036916 12.5736337,9.57322464 C12.2471946,10.2570264 12.0298082,10.9669845 11.9277061,11.683331 C11.8076283,12.5249147 11.8619149,13.2545202 12.0885289,13.8506921 C12.507483,14.9366026 13.0819871,15.4424929 13.8968864,15.4424929 C14.5824805,15.4424929 15.2659174,15.1385007 15.9874628,14.5119536 C16.889125,13.7414863 17.4242023,12.7227145 17.6233733,11.3992273 L17.6233733,11.3992273 Z M20.3522077,5.05480532 L20.6320297,5.08722956 L20.5936815,5.35698953 L20.5443082,5.70304891 L18.9751476,16.7047478 L18.9203816,17.0881734 L18.8874261,17.3192413 L18.646072,17.3192413 L18.3017771,17.3192413 L17.4410995,17.3192413 L17.0966847,17.3192413 L16.7789938,17.3192413 L16.8222553,17.0151285 L16.8770214,16.6318234 L16.8963153,16.4965819 C15.9027373,17.2969421 14.8349794,17.7025464 13.7197657,17.7025464 C12.2625338,17.7025464 11.1527128,17.0230839 10.4206216,15.6819983 C9.78775636,14.508217 9.57923799,13.1251848 9.80081871,11.5717145 C9.86025843,11.1541772 9.95073623,10.7406176 10.068657,10.3447767 C10.5619108,8.62834151 11.4430806,7.21276459 12.6884386,6.13649702 C13.7614693,5.21740863 14.9606896,4.75117468 16.2526647,4.75117468 C16.3895198,4.75117468 16.5294908,4.75647827 16.6688625,4.76696492 C17.5849053,4.78082658 18.7218098,4.86580459 20.0480585,5.01960876 L20.3522077,5.05480532 Z M45.1161607,6.98832622 L45.1042968,6.98832622 L45.0931518,6.98832622 L45.0820069,6.98736193 L45.0703826,6.98651817 C44.9974011,6.98085297 44.9238205,6.97796011 44.8517978,6.97796011 C44.1078426,6.97796011 43.4010372,7.27194785 42.6943517,7.87414662 C42.2339336,8.27854551 41.8245665,8.85036916 41.4779946,9.57322464 C41.1515554,10.2570264 40.9341691,10.9669845 40.832067,11.683331 C40.7119891,12.5249147 40.7662758,13.2543996 40.9928897,13.8506921 C41.4117241,14.9366026 41.986348,15.4424929 42.8012473,15.4424929 C43.4868413,15.4424929 44.1701584,15.1385007 44.8918237,14.5119536 C45.7933661,13.7414863 46.3285632,12.7227145 46.5276144,11.3992273 L47.1371112,7.12597854 C46.0513776,7.03461211 45.3722548,6.98832622 45.1161607,6.98832622 L45.1161607,6.98832622 Z M49.2565686,5.05480532 L49.5363906,5.08722956 L49.4979226,5.35698953 L49.4485493,5.70304891 L47.8795085,16.7047478 L47.8247424,17.0881734 L47.7917869,17.3192413 L47.5503131,17.3192413 L47.2060181,17.3192413 L46.3453406,17.3192413 L46.0010456,17.3192413 L45.6832348,17.3192413 L45.7266162,17.0151285 L45.7812624,16.6318234 L45.8005564,16.4965819 C44.8069783,17.2969421 43.7393403,17.7025464 42.6241265,17.7025464 C41.1667749,17.7025464 40.0569539,17.0230839 39.3248626,15.6819983 C38.6921172,14.508217 38.483479,13.1251848 38.7050598,11.5717145 C38.7646193,11.1541772 38.8549773,10.7406176 38.9730178,10.3447767 C39.4662716,8.62834151 40.3474415,7.21276459 41.5927995,6.13649702 C42.6658302,5.21740863 43.8650505,4.75117468 45.1569057,4.75117468 C45.2937609,4.75117468 45.4337318,4.75647827 45.5731036,4.76696492 C46.4892662,4.78082658 47.6260508,4.86580459 48.9522995,5.01960876 L49.2565686,5.05480532 Z M38.7032622,5.21789078 L38.3787405,5.21789078 L37.9819564,5.21789078 L34.8072043,5.21789078 L35.2436548,2.50450079 L35.3409634,1.89940915 L34.823742,2.22353095 L32.8409001,3.46589737 L32.7335251,3.53315656 L32.7137518,3.65875527 L31.5422141,11.0788421 C31.294269,12.8202283 31.1640049,13.8586475 31.1432729,14.2577428 C31.1095984,15.3776445 31.3622172,16.2124781 31.8938192,16.7453685 C32.2467426,17.1013119 32.7903284,17.3151431 33.5550156,17.3984336 C33.7979275,17.4277239 34.313591,17.4420677 35.1282507,17.4420677 L35.5251546,17.4420677 L35.7615953,17.4420677 L35.7987451,17.2071426 L35.8616601,16.8080473 L35.9971971,15.9500708 L36.06167,15.5410915 L36.1139194,15.2109429 L35.7814884,15.2188983 L35.3735594,15.2287823 C35.2721763,15.231193 35.1746281,15.2323984 35.0807948,15.2323984 C34.0319714,15.2323984 33.7815097,15.0799201 33.7510708,15.0581031 C33.5768261,14.8646425 33.4934188,14.3676718 33.5274528,13.7235265 C33.5341637,13.5947938 33.5896488,13.0823945 33.8866077,11.0941502 C34.0911714,9.65241691 34.197348,8.91654352 34.4257595,7.57148027 L36.3611455,7.57148027 L38.0952035,7.57148027 L38.3316441,7.57148027 L38.3687939,7.33655525 L38.4318288,6.93733941 L38.5892961,5.93942036 L38.652331,5.54020453 L38.7032622,5.21789078 Z M30.1349548,6.15204619 C29.3764992,5.24549356 28.2165858,4.78576857 26.6873313,4.78576857 C24.7878967,4.78576857 23.4489451,5.69666049 22.8153609,7.41984575 C22.7270402,7.66670385 22.6646045,7.90030297 22.6291324,8.11618327 C22.4582432,9.15592838 22.8388492,10.1091285 23.7602846,10.9490246 L23.7734668,10.9610782 L23.785211,10.971806 L23.7981535,10.9812078 L23.8128936,10.9916944 C24.5543322,11.5257902 25.2964898,12.0650691 26.0183948,12.594464 C26.6111142,13.0814302 26.875597,13.5479052 26.8042933,13.9812328 C26.7902722,14.066693 26.766784,14.1540817 26.7344277,14.2408677 C26.3981618,15.1788803 25.8603282,15.595815 24.9894645,15.595815 C24.1159642,15.595815 23.3823151,15.2848316 22.7464539,14.6447845 L22.2056244,14.1004431 L21.8361634,13.728589 L21.7339415,14.2344793 L21.5689244,15.0507504 L21.3558521,16.1048393 L21.3160659,16.302157 L21.2855071,16.4531888 L21.4053453,16.5546803 L21.5475932,16.6750959 C22.0783563,17.1244548 22.8088896,17.439898 23.7190603,17.612988 C24.0353132,17.6850686 24.3679839,17.7215911 24.7079647,17.7215911 C25.6530083,17.7215911 26.5082931,17.4817241 27.250211,17.0083785 C28.0612756,16.5179168 28.6487222,15.8001238 28.9909799,14.8789863 C29.1057848,14.5530565 29.1853574,14.2549705 29.2292181,13.9887061 C29.354449,13.2269174 29.1803242,12.5100887 28.7118769,11.8584701 C28.2894474,11.2717 27.5169707,10.6099563 26.3499869,9.83514976 C25.271923,9.13676312 24.9374547,8.59242173 24.9829932,8.31518851 C24.990543,8.26926422 25.0121139,8.18344246 25.0720329,8.03506242 L25.0733512,8.03156687 L25.0746694,8.02819186 C25.3540121,7.27604608 25.8002893,6.9692815 26.6147094,6.9692815 C26.7755321,6.9692815 26.9549298,6.98555389 27.1482288,7.01761651 C27.6495117,7.09801414 27.8911054,7.19058593 28.0057905,7.25398796 L28.0147784,7.25892995 L28.021729,7.2627871 L28.0287994,7.26628265 L28.0377873,7.27050142 C28.1884239,7.34246152 28.4436791,7.51543094 28.8061895,7.9310397 L29.3002821,8.49743921 L29.6433787,8.89074878 L29.7798744,8.39365756 L29.9988187,7.59655179 L30.2460448,6.6957849 L30.2949387,6.51775296 L30.33101,6.38648906 L30.2426893,6.28089937 L30.1349548,6.15204619 Z M12.8441084,1.06144162 L6.54541556,9.1373658 L5.3594973,16.648578 L5.29646244,17.0477938 L5.25931261,17.2827188 L5.02287196,17.2827188 L4.62596803,17.2827188 L3.63382804,17.2827188 L3.23692411,17.2827188 L2.91252226,17.2827188 L2.96333363,16.9602845 L3.02636849,16.5611892 L4.21755963,9.01695016 L0.471898639,1.00888784 L0.185844992,0.397166719 L-2.39676285e-05,0 L0.436546387,0 L1.15509589,0 L2.32567487,0 L2.54557786,0 L2.72185977,0 L2.79651894,0.16067473 L2.88352143,0.348108493 L5.75855831,6.5418602 L10.631297,0.294108284 L10.7776194,0.106674521 L10.8606673,0 L10.9954852,0 L11.2152683,0 L12.386087,0 L13.1025992,0 L13.6719502,0 L13.3205848,0.450684784 L12.8441084,1.06144162 Z" id="Fill-1" fill="#435365" mask="url(#mask-2)"></path>
                    </g>
                    <path d="M59.1755131,2.72148635 C59.1755131,2.72148635 62.140908,3.40986849 69.326403,3.81137451 C69.326403,3.81137451 69.9550739,5.37581361 71.1590877,6.81911385 C72.1902949,8.05545347 73.6435721,9.20307846 75.4852447,9.20307846 C75.4852447,9.20307846 67.6154738,9.6619597 63.6807083,8.05593562 C59.7458228,6.44991153 59.1755131,2.72148635 59.1755131,2.72148635" id="Fill-4" fill="#435365"></path>
                    <path d="M72.1590877,5.81912591 C73.1902949,7.05546553 74.6435721,8.20309051 76.4852447,8.20309051 C76.4852447,8.20309051 80.3129948,8.88387887 82.6017835,5.81912591 C84.8904524,2.75449348 86.2014816,0.385475365 90.7789392,0.00554531965 L82.2683938,0.00554531965 C82.2683938,0.00554531965 78.4020558,-0.262768221 75.0911676,2.93336918 L72.1590877,5.81912591 Z" id="Fill-6" fill="#435365"></path>
                    <path d="M90.7789392,1.00549711 C86.2014816,1.38542715 84.8904524,3.75456581 82.6017835,6.81907769 C80.3129948,9.88383065 76.4852447,9.20316284 76.4852447,9.20316284 L74.9134476,9.25523447 C74.9134476,9.25523447 73.7356783,17.7260352 64.6475131,19.434515 L73.7135083,19.7347707 C73.7135083,19.7347707 76.8896984,19.8516908 78.4242258,18.9526114 C80.7130145,17.6116463 82.9061724,15.443562 84.0757927,10.8637898 C85.9423916,3.5553195 86.2236517,1.67591935 90.7789392,1.00549711" id="Fill-8" fill="#435365"></path>
                </g>
            </g>
        </g>
    </g>
</svg>