<?xml version="1.0" encoding="UTF-8"?>
<svg width="43px" height="33px" viewBox="0 0 43 33" version="1.1" xmlns="http://www.w3.org/2000/svg" xmlns:xlink="http://www.w3.org/1999/xlink">
    <title>9F17896D-A070-4724-A89A-A3054E084C4D</title>
    <g id="VTEX" stroke="none" stroke-width="1" fill="none" fill-rule="evenodd">
        <g id="vtex-pago-efectivo-logos" transform="translate(-707.000000, -437.000000)" fill="#435365">
            <g id="Group" transform="translate(449.000000, 387.000000)">
                <path d="M296.860263,78.4581223 C296.784101,78.3327291 296.673461,78.234035 296.528653,78.1656668 C296.379893,78.0973757 296.158768,78.044209 295.861404,78.0062438 C295.663135,77.9796219 295.53731,77.9492189 295.476334,77.9151119 C295.419077,77.8847089 295.388627,77.8354004 295.388627,77.7708133 C295.388627,77.7100844 295.411484,77.6606988 295.457274,77.6227336 C295.502986,77.5809101 295.579303,77.5581465 295.678399,77.5581465 C295.781291,77.5581465 295.8652,77.5847684 295.937643,77.6379351 C295.987152,77.6796814 296.025349,77.7404103 296.044409,77.8277611 L296.89846,77.7328481 C296.837406,77.5581465 296.765041,77.4214872 296.677335,77.3189349 C296.585755,77.2163825 296.475192,77.1443104 296.341851,77.0948476 C296.208355,77.0455391 296.002493,77.0227755 295.724111,77.0227755 C295.46107,77.0227755 295.247538,77.0531785 295.091263,77.1176884 C294.934911,77.1784173 294.809085,77.2733303 294.721456,77.3987235 C294.629953,77.5278206 294.584163,77.6758231 294.584163,77.8505248 C294.584163,78.0100249 294.62608,78.1543235 294.709989,78.2796395 C294.793821,78.4049555 294.896791,78.4922292 295.018743,78.5453959 C295.136976,78.5947815 295.354304,78.6518065 295.667009,78.7163165 C295.876667,78.7581399 296.00629,78.7922469 296.052002,78.8187916 C296.120649,78.8606151 296.154972,78.9175629 296.154972,78.9897122 C296.154972,79.0542993 296.128319,79.107466 296.078732,79.1529934 C296.010009,79.2099412 295.918583,79.2403442 295.796554,79.2403442 C295.685992,79.2403442 295.598363,79.2137223 295.533513,79.1606327 C295.464867,79.1112471 295.415358,79.0238963 295.377161,78.9023614 L294.48499,78.9972743 C294.538451,79.2554685 294.65281,79.4491528 294.835815,79.5896703 C295.018743,79.7264068 295.323855,79.7946978 295.750842,79.7946978 C296.052002,79.7946978 296.292187,79.7529515 296.467677,79.6693818 C296.642934,79.582031 296.772557,79.4681354 296.856466,79.3200557 C296.936502,79.1757571 296.978496,79.0276774 296.978496,78.8758166 C296.978496,78.7238786 296.940376,78.5834383 296.860263,78.4581223 L296.860263,78.4581223 Z M293.310719,78.4049555 C293.310719,78.1733061 293.268803,78.0024627 293.184893,77.8923482 C293.100984,77.7783755 292.998092,77.7214277 292.872266,77.7214277 C292.742566,77.7214277 292.635878,77.7783755 292.548249,77.8923482 C292.464339,78.0062438 292.422423,78.1809455 292.422423,78.4125177 C292.422423,78.6518065 292.464339,78.826431 292.548249,78.9404037 C292.632159,79.0504411 292.738847,79.107466 292.868469,79.107466 C292.998092,79.107466 293.104858,79.0542993 293.184893,78.9404037 C293.268803,78.830212 293.310719,78.6518065 293.310719,78.4049555 L293.310719,78.4049555 Z M294.214356,78.4011745 C294.214356,78.8112294 294.092249,79.145354 293.856016,79.4036254 C293.615676,79.6656007 293.284066,79.7946978 292.864673,79.7946978 C292.487195,79.7946978 292.182161,79.6883644 291.949646,79.4719165 C291.663672,79.202379 291.522505,78.8530529 291.522505,78.4162988 C291.522505,78.0100249 291.640815,77.6796814 291.884797,77.4177061 C292.124981,77.1518726 292.448998,77.0227755 292.860799,77.0227755 C293.329779,77.0227755 293.6844,77.1784173 293.924508,77.4859972 C294.115183,77.7328481 294.214356,78.0403508 294.214356,78.4011745 L294.214356,78.4011745 Z M290.885938,77.2733303 C290.744771,77.106268 290.550376,77.0227755 290.302521,77.0227755 C290.119516,77.0227755 289.963241,77.0607407 289.833619,77.136671 C289.707793,77.2126014 289.578171,77.3379175 289.452345,77.5164002 L289.452345,77.0835043 L288.617354,77.0835043 L288.617354,79.73775 L289.517117,79.73775 L289.517117,78.4619033 C289.517117,78.2189106 289.55144,78.0517712 289.616213,77.9606393 C289.684937,77.8657263 289.772565,77.8201218 289.883128,77.8201218 C289.982301,77.8201218 290.05854,77.8543059 290.111846,77.9226741 C290.165306,77.9910423 290.191959,78.1087961 290.191959,78.2758584 L290.191959,79.73775 L291.095596,79.73775 L291.095596,78.0479901 C291.095596,77.698664 291.02695,77.4404698 290.885938,77.2733303 L290.885938,77.2733303 Z M287.290527,78.1733061 C287.275263,77.9758408 287.229473,77.8354004 287.153312,77.7518307 C287.076995,77.668261 286.977899,77.6265147 286.852073,77.6265147 C286.711062,77.6265147 286.596625,77.6872436 286.512716,77.8163407 C286.455536,77.8961293 286.42129,78.0176642 286.40595,78.1733061 L287.290527,78.1733061 Z M288.205553,78.6631497 L286.40595,78.6631497 C286.42129,78.826431 286.45941,78.9479659 286.52426,79.0276774 C286.608092,79.1416501 286.722451,79.1985208 286.86354,79.1985208 C286.951169,79.1985208 287.035001,79.1757571 287.115192,79.1225904 C287.160827,79.0921873 287.214288,79.0352395 287.271467,78.9555281 L288.155967,79.0504411 C288.018752,79.3162746 287.854884,79.5061777 287.664208,79.6238544 C287.47361,79.73775 287.199102,79.7946978 286.840684,79.7946978 C286.531853,79.7946978 286.287794,79.7453122 286.108585,79.6466181 C285.93325,79.547924 285.784568,79.392205 285.666335,79.1757571 C285.551977,78.9593091 285.491001,78.704896 285.491001,78.4125177 C285.491001,77.9986816 285.609079,77.6644799 285.845544,77.4062857 C286.078136,77.1518726 286.402231,77.0227755 286.813954,77.0227755 C287.149438,77.0227755 287.416275,77.0797232 287.610747,77.1936188 C287.80522,77.3113727 287.950105,77.4745767 288.053075,77.6948829 C288.155967,77.9113308 288.205553,78.1960698 288.205553,78.5453959 L288.205553,78.6631497 Z M284.858075,77.2771114 C284.717063,77.106268 284.518717,77.0227755 284.267143,77.0227755 C284.099324,77.0227755 283.954515,77.0531785 283.840079,77.1176884 C283.721924,77.1784173 283.596098,77.296094 283.454931,77.4707956 C283.382566,77.3227931 283.29486,77.2088204 283.188094,77.136671 C283.077531,77.0607407 282.928849,77.0227755 282.742047,77.0227755 C282.566635,77.0227755 282.421749,77.0568824 282.295923,77.1253278 C282.173894,77.1936188 282.051942,77.3075144 281.929913,77.4707956 L281.929913,77.0835043 L281.094922,77.0835043 L281.094922,79.73775 L281.994763,79.73775 L281.994763,78.3821919 C281.994763,78.1809455 282.025212,78.0365697 282.093858,77.9454378 C282.158708,77.8581641 282.242618,77.8163407 282.34551,77.8163407 C282.41036,77.8163407 282.467462,77.8354004 282.513252,77.8771467 C282.558964,77.9151119 282.593288,77.9720597 282.612347,78.0365697 C282.623892,78.0783931 282.631485,78.1581046 282.631485,78.2758584 L282.631485,79.73775 L283.531248,79.73775 L283.531248,78.3669903 C283.531248,78.1770872 283.561775,78.0365697 283.626547,77.9492189 C283.691397,77.8619452 283.775229,77.8201218 283.881995,77.8201218 C283.973498,77.8201218 284.045941,77.8657263 284.106917,77.9568582 C284.14891,78.013806 284.16797,78.1049379 284.16797,78.2226146 L284.16797,79.73775 L285.067733,79.73775 L285.067733,78.0707538 C285.067733,77.7100844 284.999164,77.4442509 284.858075,77.2771114 L284.858075,77.2771114 Z M278.159244,78.4771049 C278.037215,78.5264133 277.907593,78.572095 277.774097,78.609983 C277.591169,78.6631497 277.476732,78.7200975 277.427223,78.7732643 C277.377637,78.826431 277.350906,78.8909409 277.350906,78.9593091 C277.350906,79.0390978 277.377637,79.1036078 277.427223,79.1567745 C277.472936,79.2061601 277.549175,79.232782 277.644474,79.232782 C277.743647,79.232782 277.83515,79.202379 277.922779,79.1492123 C278.006688,79.0921873 278.067664,79.0276774 278.105784,78.9479659 C278.140185,78.8681772 278.159244,78.7656249 278.159244,78.6403861 L278.159244,78.4771049 Z M279.15051,79.73775 L278.307927,79.73775 C278.273526,79.6693818 278.250747,79.6162922 278.23928,79.5782499 C278.23161,79.5441429 278.22022,79.487118 278.208831,79.4112648 C278.090521,79.5402847 277.976239,79.6314166 277.858006,79.6845833 C277.701654,79.7605137 277.514774,79.7946978 277.305116,79.7946978 C277.026812,79.7946978 276.813357,79.7225485 276.668472,79.5744688 C276.523664,79.4301702 276.451143,79.2479064 276.451143,79.0352395 C276.451143,78.8340703 276.504526,78.667008 276.607496,78.5378337 C276.714184,78.4049555 276.90486,78.3100426 277.187038,78.2454554 C277.522445,78.169525 277.739851,78.1163583 277.84282,78.0859553 C277.941916,78.0555523 278.048682,78.013806 278.159244,77.9644975 C278.159244,77.8391815 278.136388,77.7518307 278.090521,77.7025222 C278.044808,77.6530595 277.964772,77.6265147 277.850413,77.6265147 C277.701654,77.6265147 277.591169,77.6530595 277.518648,77.7062262 C277.461546,77.7479724 277.415679,77.8277611 277.381511,77.9416567 L276.523664,77.8391815 C276.554035,77.668261 276.599825,77.5353828 276.660801,77.4366115 C276.721855,77.3416985 276.809561,77.258206 276.927716,77.1859795 C277.00783,77.13289 277.122111,77.0948476 277.267074,77.0645217 C277.408086,77.037977 277.564438,77.0227755 277.73218,77.0227755 C278.002814,77.0227755 278.22022,77.037977 278.380292,77.0721611 C278.544315,77.106268 278.68153,77.1784173 278.79217,77.2885318 C278.868332,77.3606811 278.925511,77.4670146 278.971301,77.6075321 C279.017014,77.7442685 279.036074,77.8732885 279.036074,77.9986816 L279.036074,79.1718988 C279.036074,79.297292 279.043744,79.3959861 279.059008,79.4643543 C279.070474,79.5365036 279.100924,79.6276355 279.15051,79.73775 L279.15051,79.73775 Z M276.100396,79.0124759 C275.982163,79.0542993 275.890661,79.077063 275.822092,79.077063 C275.749571,79.077063 275.696188,79.04666 275.669536,78.9897122 C275.650476,78.9555281 275.639086,78.8795977 275.639086,78.7656249 L275.639086,77.8277611 L276.134719,77.8277611 L276.134719,77.0835043 L275.639086,77.0835043 L275.639086,76.0734912 L274.739168,76.5936607 L274.739168,77.0835043 L274.407558,77.0835043 L274.407558,77.8277611 L274.739168,77.8277611 L274.739168,78.761921 C274.739168,79.0580804 274.765899,79.2706701 274.815563,79.4036254 C274.865072,79.5365036 274.945107,79.6351977 275.051873,79.6997848 C275.154843,79.7642948 275.322585,79.7946978 275.54371,79.7946978 C275.738182,79.7946978 275.944044,79.768153 276.168965,79.7149863 L276.100396,79.0124759 Z M274.011021,78.4581223 C273.934782,78.3327291 273.824219,78.234035 273.679334,78.1656668 C273.534448,78.0973757 273.309449,78.044209 273.012085,78.0062438 C272.813894,77.9796219 272.688068,77.9492189 272.627092,77.9151119 C272.569835,77.8847089 272.539386,77.8354004 272.539386,77.7708133 C272.539386,77.7100844 272.562242,77.6606988 272.607955,77.6227336 C272.657541,77.5809101 272.729984,77.5581465 272.832876,77.5581465 C272.932049,77.5581465 273.015959,77.5847684 273.088402,77.6379351 C273.137911,77.6796814 273.17603,77.7404103 273.198887,77.8277611 L274.049141,77.7328481 C273.991961,77.5581465 273.915722,77.4214872 273.828016,77.3189349 C273.740387,77.2163825 273.625951,77.1443104 273.492454,77.0948476 C273.36291,77.0455391 273.153252,77.0227755 272.87487,77.0227755 C272.611829,77.0227755 272.398219,77.0531785 272.241944,77.1176884 C272.085592,77.1784173 271.959766,77.2733303 271.872137,77.3987235 C271.780634,77.5278206 271.738718,77.6758231 271.738718,77.8505248 C271.738718,78.0100249 271.776838,78.1543235 271.86067,78.2796395 C271.94458,78.4049555 272.047472,78.4922292 272.169501,78.5453959 C272.291453,78.5947815 272.504985,78.6518065 272.817613,78.7163165 C273.027348,78.7581399 273.156971,78.7922469 273.202761,78.8187916 C273.271407,78.8606151 273.305653,78.9175629 273.305653,78.9897122 C273.305653,79.0542993 273.279077,79.107466 273.229413,79.1529934 C273.160767,79.2099412 273.069342,79.2403442 272.947235,79.2403442 C272.83675,79.2403442 272.749044,79.2137223 272.684271,79.1606327 C272.615625,79.1112471 272.565961,79.0238963 272.527919,78.9023614 L271.639545,78.9972743 C271.689054,79.2554685 271.807287,79.4491528 271.986496,79.5896703 C272.169501,79.7264068 272.474536,79.7946978 272.901522,79.7946978 C273.206557,79.7946978 273.442945,79.7529515 273.61828,79.6693818 C273.797489,79.582031 273.923315,79.4681354 274.007225,79.3200557 C274.08726,79.1757571 274.129254,79.0276774 274.129254,78.8758166 C274.129254,78.7238786 274.091057,78.5834383 274.011021,78.4581223 L274.011021,78.4581223 Z M270.469071,78.1733061 C270.453807,77.9758408 270.408095,77.8354004 270.331778,77.7518307 C270.255539,77.668261 270.156443,77.6265147 270.030617,77.6265147 C269.889528,77.6265147 269.775169,77.6872436 269.691259,77.8163407 C269.634157,77.8961293 269.599757,78.0176642 269.584571,78.1733061 L270.469071,78.1733061 Z M271.384097,78.6631497 L269.584571,78.6631497 C269.599757,78.826431 269.637876,78.9479659 269.69893,79.0276774 C269.786558,79.1416501 269.900995,79.1985208 270.042084,79.1985208 C270.12979,79.1985208 270.213622,79.1757571 270.293658,79.1225904 C270.339448,79.0921873 270.392831,79.0352395 270.450011,78.9555281 L271.334511,79.0504411 C271.197218,79.3162746 271.033272,79.5061777 270.842674,79.6238544 C270.651998,79.73775 270.37749,79.7946978 270.01915,79.7946978 C269.710319,79.7946978 269.466415,79.7453122 269.287129,79.6466181 C269.111717,79.547924 268.963035,79.392205 268.844879,79.1757571 C268.73052,78.9593091 268.669467,78.704896 268.669467,78.4125177 C268.669467,77.9986816 268.7877,77.6644799 269.024088,77.4062857 C269.25668,77.1518726 269.580697,77.0227755 269.992498,77.0227755 C270.328059,77.0227755 270.594896,77.0797232 270.789369,77.1936188 C270.983841,77.3113727 271.128649,77.4745767 271.231618,77.6948829 C271.334511,77.9113308 271.384097,78.1960698 271.384097,78.5453959 L271.384097,78.6631497 Z M267.338921,77.0835043 L267.338921,78.359351 C267.338921,78.6023437 267.30452,78.7694832 267.235874,78.8606151 C267.167305,78.9555281 267.079676,79.0011326 266.97291,79.0011326 C266.873737,79.0011326 266.797498,78.9669485 266.744115,78.894722 C266.690732,78.826431 266.664079,78.7086771 266.664079,78.541692 L266.664079,77.0835043 L265.760442,77.0835043 L265.760442,78.7732643 C265.760442,79.1188093 265.829088,79.3770035 265.9701,79.5441429 C266.111189,79.7112052 266.305661,79.7946978 266.553439,79.7946978 C266.736444,79.7946978 266.892874,79.7605137 267.022419,79.6845833 C267.148245,79.6086529 267.274148,79.4833369 267.399897,79.3048542 L267.399897,79.73775 L268.238684,79.73775 L268.238684,77.0835043 L267.338921,77.0835043 Z M264.502261,78.6973339 C264.464142,78.8378514 264.403166,78.9441848 264.32313,79.0124759 C264.243017,79.0808441 264.143844,79.1150282 264.025688,79.1150282 C263.884599,79.1150282 263.77024,79.0580804 263.67866,78.9441848 C263.587235,78.830212 263.541522,78.667008 263.541522,78.4467018 C263.541522,78.2037091 263.587235,78.0214453 263.67866,77.8999104 C263.77024,77.7783755 263.892192,77.7214277 264.040874,77.7214277 C264.159107,77.7214277 264.25061,77.7479724 264.319256,77.8049974 C264.391699,77.8619452 264.437411,77.9492189 264.464142,78.0631916 L265.310522,77.9340945 C265.230486,77.6379351 265.089397,77.4100668 264.887332,77.2543477 C264.685344,77.0987058 264.395495,77.0227755 264.014221,77.0227755 C263.739713,77.0227755 263.514714,77.0645217 263.339379,77.1443104 C263.228817,77.1973999 263.122051,77.2733303 263.019081,77.3796637 C262.912393,77.4859972 262.83228,77.6075321 262.771304,77.7404103 C262.687394,77.918893 262.649274,78.1466842 262.649274,78.4200799 C262.649274,78.6821323 262.679801,78.8909409 262.748447,79.0504411 C262.817016,79.2061601 262.908596,79.3466776 263.030548,79.4643543 C263.148781,79.5782499 263.28987,79.6656007 263.457612,79.7187674 C263.621558,79.768153 263.827419,79.7946978 264.078994,79.7946978 C264.334442,79.7946978 264.547974,79.7567326 264.711919,79.67324 C264.879661,79.5934514 265.016954,79.4795558 265.12372,79.3314761 C265.234282,79.1833192 265.310522,79.0086948 265.356312,78.8074484 L264.502261,78.6973339 Z M265.030185,51.037699 L265.030185,51.0247934 L265.041768,51.0247934 L265.041768,51.0011664 L265.030185,51.0011664 L265.030185,51.0136748 L265.018603,51.0136748 L265.018603,51.037699 L265.030185,51.037699 Z M265.046435,51.0146449 L265.046435,50.9904222 L265.034659,50.9904222 L265.034659,51.0027321 L265.022691,51.0027321 L265.022691,51.0146449 L265.046435,51.0146449 Z M270.400424,72.6104016 L270.659669,72.6104016 L270.659669,70.0397257 L270.400424,70.0397257 L270.400424,72.6104016 Z M266.911857,70.0472879 L266.911857,72.6256032 L267.190161,72.6331653 L267.190161,70.0472879 L266.911857,70.0472879 Z M295.133179,70.0320864 L295.140772,72.6179638 L295.457274,72.6179638 L295.457274,70.0320864 L295.133179,70.0320864 Z M295.651668,72.6179638 L295.9605,72.6179638 L295.9605,70.0396485 L295.651668,70.0396485 L295.651668,72.6179638 Z M284.941907,63.0565988 C284.69413,63.0565988 284.491987,63.2578452 284.491987,63.5046961 C284.491987,63.7515471 284.69413,63.9527163 284.941907,63.9527163 C285.189762,63.9527163 285.39175,63.7515471 285.39175,63.5046961 C285.39175,63.2578452 285.189762,63.0565988 284.941907,63.0565988 L284.941907,63.0565988 Z M288.533444,67.6816394 C288.220817,67.6816394 287.965369,67.9322715 287.965369,68.2435552 C287.965369,68.5549933 288.220817,68.8093292 288.533444,68.8093292 C288.845994,68.8093292 289.10152,68.5549933 289.10152,68.2435552 C289.10152,67.9322715 288.845994,67.6816394 288.533444,67.6816394 L288.533444,67.6816394 Z M290.813418,67.6816394 C290.50079,67.6816394 290.245342,67.9322715 290.245342,68.2435552 C290.245342,68.5549933 290.50079,68.8093292 290.813418,68.8093292 C291.126045,68.8093292 291.377697,68.5549933 291.377697,68.2435552 C291.377697,67.9322715 291.126045,67.6816394 290.813418,67.6816394 L290.813418,67.6816394 Z M288.079805,61.814859 C287.504059,61.814859 287.035001,62.281939 287.035001,62.8553524 C287.035001,63.4324697 287.504059,63.8995496 288.079805,63.8995496 C288.655474,63.8995496 289.124376,63.4324697 289.124376,62.8553524 C289.124376,62.281939 288.655474,61.814859 288.079805,61.814859 L288.079805,61.814859 Z M272.093262,59.115086 C271.43748,59.115086 270.899931,59.6505342 270.899931,60.3035819 C270.899931,60.960565 271.43748,61.4921549 272.093262,61.4921549 C272.75284,61.4921549 273.286593,60.960565 273.286593,60.3035819 C273.286593,59.6505342 272.75284,59.115086 272.093262,59.115086 L272.093262,59.115086 Z M270.796962,62.4794043 L270.804632,65.946275 L273.210431,65.9387128 L273.408545,65.6956429 L270.796962,62.4794043 Z M281.445747,56.1874446 C280.713726,56.1874446 280.115123,56.7797634 280.115123,57.5126769 C280.115123,58.2417321 280.713726,58.8379092 281.445747,58.8379092 C282.181564,58.8379092 282.77637,58.2417321 282.77637,57.5126769 C282.77637,56.7797634 282.181564,56.1874446 281.445747,56.1874446 L281.445747,56.1874446 Z M275.844948,58.5948393 L275.848822,63.4211264 L278.563375,63.4211264 L278.563375,61.8946477 L275.844948,58.5948393 Z M277.206021,54.5508514 C276.325318,54.5508514 275.612356,55.2647051 275.612356,56.138059 C275.612356,57.0114128 276.325318,57.7214855 277.206021,57.7214855 C278.082928,57.7214855 278.795966,57.0114128 278.795966,56.138059 C278.795966,55.2647051 278.082928,54.5508514 277.206021,54.5508514 L277.206021,54.5508514 Z M278.265933,58.139257 L275.959307,58.1468192 L278.994158,61.8605407 L279.665203,61.8643218 L279.665203,59.8327208 L278.265933,58.139257 Z M273.015959,61.8529014 L270.758764,61.8605407 L273.614561,65.3577373 L274.804096,64.0096641 L273.015959,61.8529014 Z M270.762638,66.3905141 L268.448342,69.1207673 L270.52625,69.1207673 L272.878744,66.3905141 L270.762638,66.3905141 Z M280.179896,59.7416661 L280.179896,63.2768278 L278.380292,64.8071647 L282.780089,64.8071647 L282.80682,62.874335 L280.179896,59.7416661 Z M282.463743,59.2176383 L280.179896,59.2176383 L283.066142,62.6161408 L285.334571,62.6161408 L282.463743,59.2176383 Z M287.359173,64.7843239 L286.436554,63.0527405 L285.628216,63.0565988 L287.793753,67.3930422 L291.381493,67.3930422 L291.381493,64.7881821 L287.359173,64.7843239 Z M275.619949,63.8578805 L271.231618,69.1207673 L273.896585,69.1207673 L278.33086,63.8578805 L275.619949,63.8578805 Z M282.780089,65.228563 L279.226672,65.228563 L275.936373,69.1321106 L278.060071,69.1321106 L281.03015,65.5969489 L284.106917,69.1321106 L286.177154,69.1169091 L282.780089,65.228563 Z M286.966432,71.429468 L288.281793,71.429468 L287.824279,70.7156142 L287.404886,70.7156142 L286.966432,71.429468 Z M288.815623,71.748391 L286.39456,71.748391 L287.279137,70.4611239 L287.953979,70.4611239 L288.815623,71.748391 Z M267.32358,71.4067043 L267.32358,72.6256032 L267.605758,72.6256032 L267.605758,71.6648985 L269.950581,71.6648985 L269.950581,72.6331653 L270.232682,72.6256032 L270.232682,71.4067043 L267.32358,71.4067043 Z M269.950581,70.0472879 L269.950581,70.9358432 L267.605758,70.9358432 L267.605758,70.0472879 L267.32358,70.0472879 L267.32358,71.2586246 L270.232682,71.2586246 L270.232682,70.0396485 L269.950581,70.0472879 Z M277.000237,71.9117494 L279.295396,71.9117494 L279.295396,70.7269575 L277.000237,70.7269575 L277.000237,71.9117494 Z M279.61949,70.7156142 L279.61949,71.9155305 C279.61949,72.0825928 279.463138,72.2002695 279.303066,72.2002695 L276.683735,72.2002695 L276.683735,70.4649822 L279.306785,70.4649822 C279.455467,70.4649822 279.61949,70.5561141 279.61949,70.7156142 L279.61949,70.7156142 Z M284.08406,70.7269575 L281.769764,70.7269575 L281.769764,71.1598533 L284.076467,71.1598533 L284.08406,70.7269575 Z M284.419622,70.7914675 L284.419622,71.1446518 C284.419622,71.3193535 284.259473,71.429468 284.087857,71.429468 L281.43428,71.429468 L281.43428,70.4687633 L284.103198,70.4687633 C284.278455,70.4687633 284.419622,70.6130619 284.419622,70.7914675 L284.419622,70.7914675 Z M284.076467,71.5509257 L281.426687,71.5509257 L281.426687,72.6179638 L281.766045,72.6179638 L281.766045,71.8243986 L284.076467,71.8243986 L284.076467,72.6217449 L284.423418,72.6217449 L284.423418,71.8168364 C284.423418,71.6307144 284.25188,71.5509257 284.076467,71.5509257 L284.076467,71.5509257 Z M293.589024,70.0358674 L293.589024,71.9117494 L291.187099,71.9117494 L291.187099,70.0358674 L290.897327,70.0358674 L290.897327,71.8889086 C290.897327,72.0521898 291.015483,72.1964884 291.187099,72.1964884 L293.589024,72.1964884 C293.76064,72.1964884 293.909244,72.0673913 293.909244,71.8965479 L293.909244,70.0358674 L293.589024,70.0358674 Z M265.992956,70.7231764 L265.992956,70.4611239 L262.935249,70.4611239 C262.771304,70.4611239 262.676005,70.5561141 262.676005,70.7231764 L262.676005,71.8851275 C262.683675,72.0407694 262.778974,72.1889262 262.927579,72.1964884 L265.992956,72.1964884 L265.992956,71.9078912 L262.942842,71.9078912 L262.942842,70.7231764 L265.992956,70.7231764 Z M275.349238,71.6686796 L275.349238,71.4104082 L271.97131,71.4104082 L271.97131,72.1812869 L275.349238,72.1889262 L275.349238,71.9041101 L272.276267,71.9117494 L272.276267,71.6686796 L275.349238,71.6686796 Z M275.349238,70.7269575 L275.349238,70.4611239 L271.986496,70.4611239 L271.986496,71.2472042 L275.349238,71.2472042 L275.349238,70.9396243 L272.276267,70.9396243 L272.276267,70.7269575 L275.349238,70.7269575 Z M288.918515,71.9155305 L286.268734,71.9155305 L285.784568,72.6141827 L286.169639,72.6141827 L286.417494,72.1889262 L288.754569,72.1889262 L289.052011,72.6217449 L289.421741,72.6217449 L288.918515,71.9155305 Z M262.958183,70.3054821 L265.992956,70.3054821 L265.992956,70.0320864 L262.961902,70.0320864 C262.573035,70.0320864 262.203228,70.3054821 262.203228,70.7079749 L262.203228,71.8926897 C262.203228,72.2914014 262.534915,72.6141827 262.935249,72.6141827 L265.992956,72.6141827 L265.992956,72.340787 L262.935249,72.340787 C262.683675,72.3331477 262.508263,72.1281202 262.508263,71.8926897 C262.512059,71.7598115 262.508263,70.7231764 262.508263,70.7004127 C262.527323,70.4649822 262.603562,70.3054821 262.958183,70.3054821 L262.958183,70.3054821 Z M275.345441,70.3131214 L275.345441,70.0435068 L271.525186,70.0435068 L271.525186,72.6217449 L275.345441,72.6217449 L275.345441,72.3445681 L271.82255,72.3445681 L271.82255,70.3131214 L275.345441,70.3131214 Z M279.768095,70.7156142 C279.768095,70.4649822 279.531784,70.3131214 279.295396,70.3131214 L276.527383,70.3131214 L276.527383,72.3483492 L279.295396,72.3483492 C279.547047,72.3483492 279.768095,72.1585232 279.768095,71.900329 L279.768095,70.7156142 Z M280.084519,70.711756 L280.084519,71.9420753 C280.084519,72.3522074 279.699526,72.6179638 279.310659,72.6179638 L276.226222,72.6179638 L276.218552,70.0358674 L279.295396,70.0358674 C279.695652,70.0358674 280.084519,70.2941388 280.084519,70.711756 L280.084519,70.711756 Z M284.766495,71.5091794 L284.713189,71.4863386 L284.781758,71.4408884 C284.899991,71.3610997 284.884805,71.1637116 284.884805,71.1408707 L284.884805,70.7231764 C284.884805,70.3472284 284.575897,70.0396485 284.198419,70.0396485 L280.961503,70.0396485 L280.961503,72.6179638 L281.293191,72.6104016 L281.293191,70.3092632 L284.118383,70.3092632 C284.354772,70.3092632 284.560633,70.4953852 284.560633,70.7383779 L284.560633,71.1560722 C284.560633,71.2737489 284.499657,71.4218286 284.434885,71.4560127 L284.381424,71.4863386 L284.427215,71.524381 C284.495861,71.5813287 284.545447,71.649697 284.545447,71.8168364 L284.545447,72.6104016 L284.884805,72.6104016 L284.884805,71.8168364 C284.884805,71.5965303 284.819955,71.5320203 284.766495,71.5091794 L284.766495,71.5091794 Z M294.061878,70.0358674 L294.061878,71.8813464 C294.061878,72.1243391 293.886388,72.3369288 293.634814,72.3369288 L291.209955,72.3369288 C290.95071,72.3369288 290.748645,72.1167769 290.748645,71.8585827 L290.748645,70.0358674 L290.416958,70.0358674 L290.416958,71.8015578 C290.416958,72.2420158 290.756238,72.6256032 291.209955,72.6256032 L293.589024,72.6256032 C294.012214,72.6256032 294.401158,72.3294438 294.401158,71.8965479 L294.401158,70.0358674 L294.061878,70.0358674 Z M288.106458,70.0358674 L287.126581,70.0358674 L285.311714,72.6217449 L285.612952,72.6217449 L287.206617,70.2979199 L288.011081,70.2979199 L289.574374,72.6217449 L289.936511,72.6217449 L288.106458,70.0358674 Z M299.830341,56.0886734 C299.830341,53.8483409 298.000288,52.0257028 295.750842,52.0257028 L263.606295,52.0257028 C263.358517,52.0257028 263.114381,52.0484665 262.881866,52.0939939 C262.317664,52.1927651 261.795224,52.4053548 261.341507,52.7091535 C260.895538,53.0091712 260.510468,53.3889003 260.213026,53.8331394 C259.904195,54.2888761 259.690663,54.8090456 259.59149,55.3710386 C259.549574,55.6064691 259.522921,55.8456807 259.522921,56.0886734 L259.522921,74.3152859 L299.830341,74.3152859 L299.830341,56.0886734 Z M299.830341,75.3899633 L259.522921,75.3899633 L259.522921,77.573348 C259.522921,79.8136804 261.353051,81.6363957 263.606295,81.6363957 L295.750842,81.6363957 C298.000288,81.6363957 299.830341,79.8136804 299.830341,77.573348 L299.830341,75.3899633 Z M265.009912,51.009566 L265.019371,51.009566 L265.019371,51.0389509 L265.029023,51.0389509 L265.029023,51.0290236 L265.048134,51.0290236 L265.048134,50.9998373 L265.029023,50.9998373 L265.029023,51.009566 L265.019371,51.009566 L265.019371,50.9998373 L265.009912,50.9998373 L265.009912,51.009566 Z M300.913264,56.0886734 L300.913264,77.573348 C300.913264,80.4060764 298.595094,82.714777 295.750842,82.714777 L263.606295,82.714777 C260.758246,82.714777 258.443872,80.4060764 258.443872,77.573348 L258.443872,56.0886734 C258.443872,53.255945 260.758246,50.9473215 263.606295,50.9473215 L295.750842,50.9473215 C298.595094,50.9473215 300.913264,53.255945 300.913264,56.0886734 L300.913264,56.0886734 Z M261.341507,52.7091535 C260.903054,53.0168105 260.52178,53.3965397 260.213026,53.8331394 C259.904195,54.2888761 259.690663,54.8090456 259.59149,55.3710386 C260.003291,53.7648484 261.269142,52.504126 262.881866,52.0939939 C262.317664,52.1927651 261.795224,52.4053548 261.341507,52.7091535 L261.341507,52.7091535 Z M260.211167,53.8339111 C260.509848,53.3898263 260.893756,53.0075507 261.339725,52.7102338 C260.901814,53.0176593 260.519998,53.3978515 260.211167,53.8339111 L260.211167,53.8339111 Z" id="chedraui"></path>
            </g>
        </g>
    </g>
</svg>