<?xml version="1.0" encoding="UTF-8"?>
<svg width="43px" height="35px" viewBox="0 0 43 35" version="1.1" xmlns="http://www.w3.org/2000/svg" xmlns:xlink="http://www.w3.org/1999/xlink">
    <title>F2C671F5-F292-4F0F-9825-1B8543E7A086</title>
    <g id="VTEX" stroke="none" stroke-width="1" fill="none" fill-rule="evenodd">
        <g id="vtex-pago-efectivo-logos" transform="translate(-779.000000, -437.000000)" fill="#435365" fill-rule="nonzero">
            <g id="Group" transform="translate(449.000000, 387.000000)">
                <g id="del_sol" transform="translate(330.907662, 50.947321)">
                    <path d="M7.6426938,13.5802708 L7.20518718,13.2676119 C7.23253134,13.2268304 7.9434796,12.2480721 9.4610807,11.6635359 C8.96888575,11.3236893 8.21692124,10.6983715 7.73839837,9.86914577 L7.56066131,9.52929916 L7.92980752,9.46132983 C8.98255783,9.28460959 10.185701,9.02632616 10.6232077,8.86319979 C10.4728148,8.40100839 10.0216361,7.25912375 9.24232738,6.60661824 L8.61341162,6.10364525 L9.42006445,6.13083298 L11.9083834,6.25317776 C11.5802534,5.7366109 11.1974351,4.86660356 11.4025163,3.84706371 L11.4572047,3.54799869 L11.7579905,3.64315574 L14.2326373,4.3908183 C14.3283419,4.06456555 14.5060789,3.24893366 14.3420139,2.06626743 L14.2736535,1.57688831 L14.7385043,1.78079628 C14.8615531,1.8487656 15.8322709,2.310957 16.4338425,2.66439748 C16.5568912,1.98470425 16.8029887,0.774850288 17.1721349,0.407815941 L17.3772161,0.176720241 L17.5822974,0.421409806 C18.0744923,1.00594599 18.9221614,1.94392265 19.4280284,2.33814473 C19.851863,1.25063555 20.4124183,0.0815631882 20.9046133,0.0271877294 L21.0686783,0 L21.1643828,0.135938647 C21.2600874,0.271877294 21.9983798,1.30501101 22.2854935,2.05267357 C22.8323768,1.68563922 23.9398155,0.9243828 24.3773221,0.43500367 L24.7464683,0 L24.8558449,0.570942317 C24.8558449,0.625317776 25.0882703,1.90314106 25.1566308,2.78674226 C25.6078095,2.50127111 26.3871181,2.09345516 27.2211151,2.03907971 L27.5492451,2.01189198 L27.5219009,2.33814473 C27.4398684,3.18096434 27.3988522,4.17331646 27.4398684,4.54035081 C27.9867517,4.51316308 29.7367782,4.29566125 30.0512361,4.118941 C30.1055616,4.03589876 30.19772,3.98499254 30.2973336,3.98300236 L30.4887427,3.98300236 L30.5571031,4.1597226 C30.6254635,4.37722443 30.3383498,5.70942317 29.8598269,6.57943052 C30.5707752,6.45708573 31.6782138,6.34833482 32.3481458,6.59302438 L32.7172921,6.71536916 L32.4711946,7.02802805 C31.8832951,7.77569061 31.2680514,8.70007341 31.1313306,9.08070162 C31.869623,9.48851756 32.9360454,9.96430283 33.2778474,9.8963335 L33.7426982,9.80117645 L33.5786332,10.249774 C33.5649611,10.2905556 33.1958149,11.2965016 32.0063438,12.0441641 C32.6740971,12.2632627 33.28545,12.6251918 33.7973865,13.1044856 L33.4145682,13.4851138 C32.5805712,12.6694819 31.2407072,12.3840107 31.2270351,12.3704169 L30.3930381,12.2072905 L31.1723468,11.85385 C31.8834836,11.5568937 32.4850966,11.0489229 32.8950291,10.3993065 C32.1020484,10.249774 30.9535935,9.61086234 30.6938239,9.46132983 L30.5707752,9.39336051 L30.5707752,9.243828 C30.529759,8.7816366 31.2817235,7.70772129 31.8012626,7.02802805 C30.9809377,6.932871 29.7504503,7.15037283 29.2855995,7.25912375 L29.0531741,6.78333849 C29.4906807,6.429898 29.8188107,5.35598269 29.9555315,4.73066492 C29.591501,4.8236963 29.2214887,4.89182509 28.8480929,4.93457289 C28.4242583,5.00254221 27.4125243,5.12488699 27.207443,5.0841054 C27.0023618,5.0433238 26.7699364,4.98894835 26.9613456,2.62361589 C25.9632836,2.81392999 25.1019424,3.50721709 25.0882703,3.52081096 L24.6234196,3.90143917 L24.6234196,3.30330912 C24.6370916,2.81392999 24.4866987,1.79439014 24.3909942,1.16907236 C23.7209681,1.72894827 23.0128965,2.2422021 22.2718215,2.70517908 L21.9163473,2.93627478 L21.861659,2.51486497 C21.8069707,2.13423676 21.2737595,1.26422942 20.8772691,0.66609937 C20.6174996,0.978758259 20.1799929,1.88954719 19.8245188,2.84111772 L19.7151421,3.12658888 L19.4553726,3.0042441 C18.9358335,2.7731484 17.8967552,1.6176699 17.4045603,1.06032145 C17.1994791,1.54970058 17.0080699,2.51486497 16.9123653,3.16737048 L16.8440049,3.6567496 L16.4611866,3.34409072 C16.2287613,3.15377661 15.4767967,2.75955453 14.9435855,2.48767724 C15.025618,3.72471893 14.7931926,4.66269559 14.6017835,4.86660356 C14.5488165,4.93346461 14.468607,4.97333995 14.3830302,4.97535448 C14.3283419,4.97535448 14.2599815,4.97535448 11.8947113,4.25487965 C11.8263509,5.45113975 12.687692,6.38911641 12.7013641,6.40271027 L12.4142504,6.85130781 L12.4279225,6.85130781 C12.2775296,6.81052622 11.2111072,6.75615076 10.0899965,6.7017753 C10.6013281,7.36319984 10.9817629,8.11510364 11.2111072,8.91757524 L11.2521234,9.08070162 L11.1290747,9.18945254 C10.8556331,9.44773597 9.36537612,9.76039486 8.42200247,9.92352123 C9.11927865,10.9022795 10.2130452,11.5004095 10.2267173,11.5140034 L10.8146168,11.8266623 L10.172029,12.0169764 C8.46301871,12.4791678 7.65636588,13.566677 7.6426938,13.5802708 Z" id="Path"></path>
                    <path d="M29.8324828,12.5743248 C29.3949761,12.4247923 29.873499,12.2344782 29.873499,12.2344782 C31.199691,11.4324402 31.199691,10.8343102 31.199691,10.8343102 C30.8578889,10.9430611 29.8051386,10.2905556 29.531697,10.2225863 C29.2582553,10.1546169 29.1078624,10.0730537 29.1898949,9.67883167 C29.2719274,9.28460959 30.3383498,8.11553723 30.3383498,8.11553723 C29.7367782,7.88444153 28.4789467,8.10194336 28.1234725,8.11553723 C27.7679984,8.12913109 27.8910471,7.96600472 27.8910471,7.96600472 C28.861765,6.63380597 28.6566837,5.83176796 28.6566837,5.83176796 C28.4263477,5.95931162 28.1682881,6.02928887 27.9047192,6.03567593 C27.5082288,6.03567593 26.6058714,6.09005139 26.4554785,6.21239617 C26.3050856,6.33474095 26.195709,6.10364525 26.2503973,5.65504772 C26.3050856,5.20645018 26.1136765,4.24128579 26.1136765,4.24128579 C25.7171861,4.24128579 24.8968612,4.59472627 24.5824033,4.8530097 C24.2679454,5.11129313 24.1722409,4.92097902 24.1722409,4.92097902 C24.2406013,4.20050419 23.9671596,2.75955453 23.9124713,2.85471159 C23.857783,2.94986864 22.5589352,3.87425144 22.1624448,4.20050419 C21.7659544,4.52675695 21.6565778,3.96940849 21.6565778,3.96940849 C21.5034698,3.42945721 21.2274659,2.93177145 20.8499249,2.51486497 C20.35773,2.84111772 20.0569442,3.79268825 20.0159279,3.96940849 C19.9749117,4.14612873 19.9749117,4.49956922 19.6057655,4.44519376 C19.2366193,4.3908183 17.855739,2.7323668 17.855739,2.7323668 C17.513937,3.18096434 17.3088557,4.8122281 17.3088557,4.8122281 C17.0901024,4.59472627 15.6135176,3.81987598 15.7092221,4.02378395 C15.8049267,4.22769192 15.7502384,6.14442685 15.4631247,6.2395839 C15.1760109,6.33474095 13.0431662,5.57348453 13.0431662,5.57348453 C12.9474616,6.81052622 13.6584098,7.53100104 13.9455236,7.70772129 C14.2326373,7.88444153 13.3849682,7.83006607 12.5646433,7.73490902 C12.1424684,7.68216829 11.7153146,7.68216829 11.2931397,7.73490902 C11.9220554,8.10194336 12.5646433,9.77398872 12.5646433,9.77398872 C12.3732341,10.0730537 10.0899965,10.4264942 10.0899965,10.4264942 C10.1310127,11.2013445 11.6896301,12.1257273 11.6896301,12.1257273 C10.8600909,12.2851024 10.1222715,12.751496 9.62514568,13.4307383 L13.0431662,13.4307383 L13.0431662,13.2947997 C13.0431662,9.21664027 16.4201704,5.92692501 20.5764833,5.92692501 C24.7327962,5.92692501 28.1234725,9.21664027 28.1234725,13.2947997 L28.1234725,13.4171445 L28.0961284,13.4171445 L28.0961284,13.4579261 C30.1332686,13.4579261 31.4868047,13.4443322 31.4457884,13.4171445 C31.4047722,13.3899567 30.2563173,12.7238574 29.8324828,12.5743248 Z" id="Path"></path>
                    <path d="M34.9868577,15.7416953 L34.9868577,21.6550265 C34.9868577,21.6550265 35.0825622,22.5658154 34.5083348,22.5522215 C33.9341074,22.5386277 33.7700424,22.5794093 33.7700424,22.8240988 C33.7700424,23.0687884 33.9341074,23.1231639 34.4946627,23.1231639 L39.6490376,23.1231639 C39.6490376,23.1231639 40.4556904,23.0551945 40.7564762,22.4842522 C41.057262,21.9133099 41.4127362,21.396743 40.9615575,21.1520535 C40.5103788,20.9073639 40.3736579,21.6822142 40.2779534,21.8317467 C40.1822488,21.9812792 40.1822488,22.1987811 39.6490376,22.1987811 L37.0376699,22.1987811 C37.0376699,22.1987811 36.8599329,22.2395627 36.8599329,21.8317467 L36.8599329,15.5785689 C36.8599329,15.5785689 36.873605,14.8852818 37.3384558,14.8852818 C37.8033065,14.8852818 38.1587807,14.8580941 38.1587807,14.572623 C38.1587807,14.2871518 37.8990111,14.2191825 37.5845532,14.2191825 L34.2348932,14.2191825 C34.2348932,14.2191825 33.7700424,14.2191825 33.7700424,14.572623 C33.7700424,14.9260634 34.3579419,14.8445003 34.3579419,14.8445003 C34.3579419,14.8445003 34.9868577,14.871688 34.9868577,15.7416953 Z" id="Path"></path>
                    <path d="M16.1467288,15.6873199 L16.1467288,20.2548584 C16.1467288,20.2548584 16.2150892,20.9481455 15.7775825,20.9345516 C15.3400759,20.9209578 15.2033551,20.9617394 15.2033551,21.1520535 C15.2033551,21.3423676 15.3400759,21.3831492 15.7639105,21.3831492 L19.7424863,21.3831492 C19.7424863,21.3831492 20.35773,21.3287737 20.5901554,20.89377 C20.8225808,20.4587664 21.1096945,20.0509504 20.7542204,19.8606363 C20.3987462,19.6703222 20.3030417,20.2684523 20.2210092,20.3772032 C20.1389767,20.4859541 20.1526488,20.6626743 19.7424863,20.6626743 L17.7326903,20.6626743 C17.7326903,20.6626743 17.5959694,20.6898621 17.5959694,20.3772032 L17.5959694,15.5513812 C17.5959694,15.5513812 17.6096415,15.0076266 17.9651157,15.0076266 C18.3205898,15.0076266 18.5940314,14.9940328 18.5940314,14.7765309 C18.5940314,14.5590291 18.3889502,14.5046536 18.1565248,14.5046536 L15.5588292,14.5046536 C15.5588292,14.5046536 15.2033551,14.5046536 15.2033551,14.7765309 C15.2033551,15.0484082 15.6545338,14.9804389 15.6545338,14.9804389 C15.6545338,14.9804389 16.1467288,15.0212205 16.1467288,15.6873199 Z" id="Path"></path>
                    <path d="M11.8673671,15.469818 L11.8673671,17.2642082 C11.8673671,17.2642082 11.8263509,17.5088977 12.0587763,17.5088977 L13.2755916,17.5088977 C13.4365149,17.5090631 13.5690627,17.383264 13.5763774,17.2234266 C13.6173936,16.9243616 13.6720819,16.6660781 13.8361469,16.6660781 C14.0002119,16.6660781 14.0412281,16.7884229 14.0412281,17.1010818 L14.0412281,18.7323456 C14.0412281,18.7323456 14.0685723,19.0042229 13.8634911,19.0042229 C13.6584098,19.0042229 13.6310657,18.4468744 13.5900494,18.3924989 C13.5490332,18.3381235 13.5080169,18.2429664 13.3029357,18.2429664 L12.0724483,18.2429664 C12.0724483,18.2429664 11.853695,18.2021848 11.8673671,18.4196867 L11.8673671,20.499548 C11.8673671,20.642194 11.9836699,20.7578314 12.1271367,20.7578314 L13.9728677,20.7578314 C14.1131341,20.748412 14.240303,20.6725472 14.3146698,20.5539234 C14.4513906,20.3500155 14.7521764,19.7111038 15.011946,19.8334486 C15.2717155,19.9557934 15.1076505,20.5403296 14.8752251,20.8801762 C14.6427997,21.2200228 14.6154556,21.4103369 14.0685723,21.4239308 L9.92593148,21.4239308 C9.92593148,21.4239308 9.55678527,21.4783062 9.55678527,21.2200228 C9.55678527,20.9617394 9.85757107,20.9753332 9.98061981,20.9753332 C10.1036685,20.9753332 10.5275031,21.0433026 10.5275031,20.4859541 L10.5275031,15.469818 C10.5275031,15.469818 10.5821914,15.075596 10.185701,15.075596 C9.78921066,15.075596 9.55678527,15.0891898 9.55678527,14.7901248 C9.55678527,14.4910598 9.77553858,14.5318414 10.007964,14.5318414 L14.0275561,14.5318414 C14.0275561,14.5318414 14.7931926,14.4910598 14.8068647,15.0348144 L14.8068647,16.0135726 C14.8068647,16.0135726 14.8342089,16.2854499 14.6291277,16.2854499 C14.4240464,16.2854499 14.4240464,15.6193505 14.4240464,15.6193505 C14.4240464,15.6193505 14.3693581,15.2659101 13.8908352,15.2795039 L12.0997925,15.2795039 C12.0997925,15.2795039 11.8673671,15.2523162 11.8673671,15.469818 Z" id="Path"></path>
                    <path d="M9.62514568,18.2973419 C9.35170404,14.0832438 5.0723424,14.2871518 5.0723424,14.2871518 L0.615243687,14.2871518 C0.341802048,14.2871518 0,14.2463702 0,14.5318414 C0,14.8173125 0.0820324916,14.8037187 0.683604097,14.8037187 C1.2851757,14.8037187 1.21681529,15.6601321 1.21681529,15.6601321 L1.21681529,18.487656 C1.21681529,18.487656 1.24415946,21.7229958 1.23048737,22.0356547 C1.21681529,22.3483136 0.833996998,22.5658154 0.615243687,22.5794093 C0.396490376,22.5930031 0,22.5522215 0,22.8648804 C0,23.1775393 0.519539113,23.1231639 0.519539113,23.1231639 L5.27742363,23.1231639 C7.45128465,23.1367577 9.83022691,21.5326817 9.62514568,18.2973419 Z M4.48444287,22.5250338 C2.89848137,22.606597 2.99418594,21.6822142 2.99418594,21.6822142 L2.99418594,15.9591972 C2.99418594,15.3610671 3.43169256,14.7357493 4.59381953,14.7357493 C5.53719318,14.7493432 7.51964506,15.7960708 7.56066131,18.7051578 C7.60167755,21.6142449 6.0567323,22.4434706 4.48444287,22.5250338 Z" id="Shape"></path>
                    <path d="M23.4749647,14.1784009 C23.4749647,14.1784009 24.5687312,14.1104316 25.3890561,14.6949677 C25.6624978,14.8852818 25.7308582,14.8852818 25.8812511,14.7901248 C26.031644,14.6949677 26.0453161,14.5590291 26.2230531,14.5590291 C26.4007902,14.5590291 26.4828227,14.6269984 26.5238389,14.9396573 C26.5648552,15.2523162 26.8109527,17.1010818 26.3461019,17.1146757 C25.8812511,17.1282695 26.0453161,16.679672 25.9085953,16.3534192 C25.7718744,16.0271665 24.9652216,14.6813739 23.4749647,14.7493432 C21.9847077,14.8173125 21.4651686,16.7340474 22.2171331,17.4137407 C22.9690976,18.0934339 26.4828227,21.097678 26.4828227,21.097678 C26.4828227,21.097678 29.9828757,23.3678534 29.9418594,26.8886644 C29.9008432,30.4094753 27.8773751,34.0390372 21.8753311,34.0526785 C15.8732871,34.0662249 12.6056595,31.1571379 12.6056595,27.0925724 C12.6056595,23.0280068 16.9260374,22.5114399 17.8830832,22.5250338 C18.8401289,22.5386277 22.2991656,23.0959761 22.9827697,26.1953773 C23.1468347,27.1333539 22.5999514,27.1061662 22.3128377,26.6167871 C22.025724,26.127408 20.9593016,24.5777074 18.4709827,24.5641135 C15.9826638,24.5505197 15.0666343,26.4672546 15.2033551,27.6771085 C15.3400759,28.8869625 16.6252516,32.9651219 21.3831361,32.9243403 C26.1410207,32.8835587 27.2894755,29.1860275 27.2894755,27.228511 C27.2894755,25.2709945 26.0042998,23.2319148 23.2562114,21.3831492 C20.5081229,19.5343836 20.0842884,18.6643762 20.0842884,17.1554573 C20.0842884,15.6465383 21.9300194,14.164807 23.4749647,14.1784009 Z" id="Path"></path>
                    <path d="M30.5844473,14.5046536 C30.5844473,14.5046536 26.8109527,14.4230904 26.8109527,17.9710891 C26.8109527,21.5190878 30.5844473,21.5326817 30.5844473,21.5326817 C30.5844473,21.5326817 34.3989581,21.4919001 34.3989581,17.9710891 C34.3989581,14.4502782 30.5844473,14.5046536 30.5844473,14.5046536 Z M30.5844473,21.002521 C28.2328492,21.002521 28.3969142,17.7671812 28.3969142,17.7671812 C28.3969142,17.7671812 28.5609792,14.9396573 30.6117914,14.9396573 C32.6626037,14.9396573 32.7583083,17.7671812 32.7583083,17.7671812 C32.7583083,17.7671812 32.9223733,21.002521 30.5844473,21.002521 L30.5844473,21.002521 Z" id="Shape"></path>
                </g>
            </g>
        </g>
    </g>
</svg>