<?xml version="1.0" encoding="UTF-8"?>
<svg width="34px" height="22px" viewBox="0 0 34 22" version="1.1" xmlns="http://www.w3.org/2000/svg" xmlns:xlink="http://www.w3.org/1999/xlink">
    <title>EE0C4643-A75B-471F-B9FD-D1941E93EFDE@1.5x</title>
    <g id="VTEX" stroke="none" stroke-width="1" fill="none" fill-rule="evenodd">
        <g id="vtex-pago-efectivo-logos" transform="translate(-844.000000, -229.000000)" fill-rule="nonzero">
            <g id="pci" transform="translate(844.000000, 229.000000)">
                <polygon id="pci-path" fill="#2575FC" points="28.139809 15.0172922 33 13.518678 27.2485033 1 1 2.40376924 6.14247523 14.7618089 6.3567917 15.2765137 8.73868284 21 27.2993391 15.2765137"></polygon>
                <path d="M10.9829626,9.85372735 C10.9829626,10.4639606 10.170269,10.9294484 9.37899036,10.9294484 C9.30796444,10.9294484 9.09631434,10.9317982 8.96996673,10.9310933 L8.96996673,8.70751339 L9.1264141,8.70751339 L9.19161042,8.70751339 C9.34460762,8.71315283 9.54959533,8.7301886 9.74530325,8.7489867 C10.611296,8.83193331 10.9829626,9.24349414 10.9829626,9.85372735 L10.9829626,9.85372735 Z M27.0833604,1.76467133 C28.295084,1.76467133 29.2776687,2.73512308 29.2776687,3.93173943 C29.2776687,5.12859075 28.295084,6.09904249 27.0833604,6.09904249 C25.8713989,6.09904249 24.8890521,5.12859075 24.8890521,3.93173943 C24.8890521,2.73512308 25.8713989,1.76467133 27.0833604,1.76467133 L27.0833604,1.76467133 Z M23.8592358,13.2217589 L23.8592358,15.2518358 C16.2776652,17.1719439 14.7793396,13.4212537 14.7793396,10.9656348 C14.7793396,8.51025088 17.4827264,5.59607593 23.8159303,7.1319979 L23.8592358,9.32667571 C19.3285675,8.17446986 18.6666107,10.4179052 18.6666107,11.2789756 C18.6666107,12.1401633 19.5556839,14.6485344 23.8592358,13.2217589 L23.8592358,13.2217589 Z M25.1796992,15.704165 L25.1796992,6.85425603 L28.836047,6.85425603 L28.836047,15.4190214 L34,13.7705458 L27.8890347,0 L0,1.54414616 L5.46387993,15.1379898 L5.46387993,6.73571055 L9.12034655,6.73571055 L9.30701267,6.73571055 C9.74328074,6.75251134 10.3276682,6.80056397 10.8860009,6.85425603 C13.355609,7.09111205 14.4150492,8.40169186 14.4150492,10.1416907 C14.4150492,11.8814546 12.0979624,13.0724315 9.84095625,13.0724315 C9.58231246,13.0724315 9.34270407,13.066792 9.12034655,13.0565706 L9.12034655,15.704165 L5.69159118,15.704165 L8.22235052,22 L27.9430477,15.704165 L25.1796992,15.704165 Z" fill="#FFFFFF"></path>
            </g>
        </g>
    </g>
</svg>