<?xml version="1.0" encoding="UTF-8"?>
<svg width="80px" height="20px" viewBox="0 0 80 20" version="1.1" xmlns="http://www.w3.org/2000/svg" xmlns:xlink="http://www.w3.org/1999/xlink">
    <title>4CC03CC2-EC6B-4911-B2DC-58E607D836AD@1.5x</title>
    <g id="VTEX" stroke="none" stroke-width="1" fill="none" fill-rule="evenodd">
        <g id="vtex-pago-efectivo-logos" transform="translate(-420.000000, -230.000000)" fill="#FFFFFF" fill-rule="nonzero">
            <g id="logoNetPayBlanco" transform="translate(420.000000, 230.000000)">
                <path d="M67.0794824,4.16071428 L69.5194085,11.8626587 C69.676525,12.3619444 69.7966728,12.8427381 69.8890943,13.3512698 L69.8890943,13.3512698 L70.2125693,13.3512698 C70.3696858,12.8519841 70.5360444,12.2972222 70.6654344,11.8626587 L70.6654344,11.8626587 L73.0591497,4.16071428 L76.025878,4.16071428 L71.8761553,15.6997619 C71.1460259,17.780119 69.5194085,20.1748412 66.2384473,19.9899206 L66.2384473,19.9899206 L66.0073937,18.2331746 C67.1072089,17.9280555 67.8927911,17.5027381 68.4565619,16.910992 C68.6229205,16.7353174 68.5489834,16.3469841 68.4103512,15.9216666 C68.2439926,15.440873 64.3068392,4.6045238 64.1497227,4.16996031 L64.1404806,4.16071428 L67.0794824,4.16071428 Z M20.9242144,4.45658729 C24.5563771,4.45658729 26.0166359,5.80650792 26.0166359,8.33992061 C26.0166359,10.3463095 25.1016636,11.5390476 23.0221811,11.5390476 L23.0221811,11.5390476 L18.4565619,11.5390476 C18.6876155,13.5731746 19.5286506,13.98 21.4510166,13.98 C22.5231054,13.98 24.1219963,13.8690476 25.4713494,13.702619 L25.4713494,13.702619 L25.7208872,15.4871031 C24.5378928,16.0603571 22.5231054,16.2360317 21.1090573,16.2360317 C17.0425139,16.2360317 15.5175601,14.5902381 15.5175601,10.3463095 C15.5175601,5.9174603 17.1349353,4.45658729 20.9242144,4.45658729 Z M32.754159,1.55333333 L32.754159,4.77095237 L36.0443623,4.77095237 L36.0443623,6.77734125 L32.754159,6.77734125 L32.7634011,12.4728968 C32.7634011,13.4529762 33.1053604,13.7765873 34.1127542,13.7765873 L34.1127542,13.7765873 L35.6377079,13.7765873 L35.9334566,15.8292063 C35.1571165,16.0788492 33.7430684,16.2175396 33.0591497,16.2175396 C31.0998152,16.2175396 30.0184843,15.0340476 30.0184843,12.9536904 L30.0184843,12.9536904 L30.0184843,6.78658728 L27.9852126,6.78658728 L27.9852126,4.89115078 L29.9907579,4.7801984 L29.9907579,1.55333333 L32.754159,1.55333333 Z M58.3179298,4.45658729 C61.0813309,4.45658729 62.5231054,5.37194443 62.5231054,8.35841268 L62.5231054,8.35841268 L62.5231054,15.9678968 L60.3327172,15.9678968 L60.0369686,14.2573809 C59.232902,15.145 57.7726433,16.2175396 55.767098,16.2175396 C53.715342,16.2175396 52.2273567,15.0710317 52.2273567,12.9721825 L52.2273567,12.9721825 L52.2273567,11.8256746 C52.2273567,10.0411905 53.4380776,9.01488093 55.5360444,9.01488093 L55.5360444,9.01488093 L59.74122,9.01488093 L59.74122,8.33992061 C59.7227357,7.06396824 59.2883549,6.74035713 57.689464,6.74035713 C56.8299445,6.74035713 55.3696858,6.80507935 53.8817006,6.9067857 L53.7245841,6.91603173 C53.4842884,6.93452379 53.2439926,6.95301586 53.012939,6.97150792 L53.012939,6.97150792 L52.7264325,5.00210316 C54.3253235,4.70623015 56.8391867,4.45658729 58.3179298,4.45658729 Z M3.29020333,0.203412698 C3.90942699,0.203412698 4.2051756,0.48079365 4.48243993,1.07253968 L4.48243993,1.07253968 L8.76155268,10.4665079 C9.05730129,11.1507143 9.51016636,12.1123016 9.86136784,12.9536904 L9.86136784,12.9536904 L10.1386322,12.9536904 C10.0739372,12.0845635 10.0277264,11.2431746 10.0277264,10.3925397 L10.0277264,10.3925397 L10.0277264,0.203412698 L12.8096118,0.203412698 L12.8096118,14.9138492 C12.8096118,15.5980555 12.4491682,15.9678968 11.7560074,15.9678968 L11.7560074,15.9678968 L9.50092421,15.9678968 C8.88170055,15.9678968 8.56746765,15.6905158 8.30868762,15.0987698 L8.30868762,15.0987698 L3.88170055,5.43666665 C3.58595194,4.79869046 3.10536044,3.8186111 2.94824399,3.0881746 L2.94824399,3.0881746 L2.67097967,3.0881746 C2.7818854,3.88333332 2.80961183,4.68773808 2.80961183,5.46440475 L2.80961183,5.46440475 L2.80961183,15.9678968 L0,15.9678968 L0,1.25746031 C0,0.573253967 0.388170055,0.203412698 1.07208872,0.203412698 L1.07208872,0.203412698 L3.29020333,0.203412698 Z M44.8983364,0 C48.9833641,0 50.3049908,1.10027778 50.3049908,5.06682538 C50.3049908,9.06111109 48.9833641,10.1336508 45.25878,10.1336508 C44.1219963,10.1336508 42.9944547,10.0689285 42.0425139,9.94873013 L42.0425139,9.94873013 L42.0425139,15.9586508 L39.1866913,15.9586508 L39.1866913,0.203412698 C39.6580407,0.157182539 40.0924214,0.120198412 40.5268022,0.0924603172 L40.6377079,0.0832142855 C41.7467652,0.00924603172 42.8650647,0 44.6395564,0 L44.8983364,0 Z M59.74122,10.9195635 L56.1737523,10.9195635 C55.25878,10.9657936 54.9907579,11.4188492 54.9907579,12.1770238 L54.9907579,12.1770238 L54.9907579,12.6115873 C54.9907579,13.5731746 55.4436229,13.98 56.4510166,13.98 C57.3197782,13.98 58.5951941,13.5916666 59.74122,12.6578174 L59.74122,12.6578174 L59.74122,10.9195635 Z M21.0443623,6.64789681 C19.1219963,6.64789681 18.4842884,7.23964284 18.4195933,9.59738093 L18.4195933,9.59738093 L22.2550832,9.59738093 C23.142329,9.59738093 23.2624769,8.88543649 23.2624769,8.29369046 C23.2624769,7.1101984 22.7634011,6.64789681 21.0443623,6.64789681 Z M44.8336414,2.35773809 L42.051756,2.35773809 L42.051756,7.81289681 L44.8336414,7.81289681 C46.8207024,7.79440474 47.4399261,7.23964284 47.4399261,5.07607142 C47.4399261,2.90325396 46.8207024,2.35773809 44.8336414,2.35773809 L44.8336414,2.35773809 Z M78.3548983,0.406825396 C78.8077634,0.406825396 79.1959335,0.564007935 79.5194085,0.887619045 C79.8428835,1.21123016 80,1.59956349 80,2.05261904 C80,2.5056746 79.8336414,2.89400793 79.5194085,3.21761904 C79.1959335,3.54123015 78.8077634,3.69841269 78.3548983,3.69841269 C77.9020333,3.69841269 77.5138632,3.54123015 77.1903882,3.21761904 C76.8669131,2.89400793 76.7097967,2.5056746 76.7097967,2.05261904 C76.7097967,1.59956349 76.8669131,1.21123016 77.1903882,0.887619045 C77.5138632,0.564007935 77.9020333,0.406825396 78.3548983,0.406825396 Z M78.3641405,0.619484125 C77.9759704,0.619484125 77.6340111,0.758174601 77.3567468,1.03555555 C77.0794824,1.3129365 76.9408503,1.65503968 76.9408503,2.05261904 C76.9408503,2.45019841 77.0794824,2.79230158 77.3567468,3.06968253 C77.6340111,3.34706348 77.9759704,3.49499999 78.3641405,3.49499999 C78.7523105,3.49499999 79.0942699,3.35630952 79.3715342,3.06968253 C79.6487985,2.79230158 79.7874307,2.45019841 79.7874307,2.05261904 C79.7874307,1.65503968 79.6487985,1.3129365 79.3715342,1.03555555 C79.0942699,0.758174601 78.7523105,0.619484125 78.3641405,0.619484125 Z M78.3456562,1.14650793 C78.4473198,1.14650793 78.5304991,1.14650793 78.6044362,1.165 C78.6783734,1.17424603 78.7430684,1.20198412 78.8170055,1.23896825 C78.8909427,1.28519841 78.9463956,1.33142857 78.9833641,1.39615079 C79.0203327,1.46087301 79.038817,1.53484127 79.038817,1.62730158 C79.038817,1.75674603 79.0018484,1.85845238 78.9279113,1.94166666 C78.8539741,2.02488095 78.7615527,2.08960317 78.650647,2.13583333 L78.650647,2.13583333 L79.297597,2.89400793 L78.8632163,2.89400793 L78.3271719,2.21904761 L78.0961183,2.21904761 L78.0961183,2.89400793 L77.7818854,2.89400793 L77.7818854,1.14650793 L78.3456562,1.14650793 Z M78.336414,1.39615079 L78.0868762,1.39615079 L78.0868762,1.98789682 L78.271719,1.98789682 C78.336414,1.98789682 78.3918669,1.97865079 78.4380776,1.96940476 C78.4935305,1.96015873 78.5304991,1.94166666 78.5674677,1.90468254 C78.6044362,1.87694444 78.6229205,1.83996031 78.6414048,1.80297619 C78.6598891,1.76599206 78.6783734,1.71051587 78.6783734,1.65503968 C78.6783734,1.60880952 78.6691312,1.56257936 78.6598891,1.53484127 C78.6414048,1.49785714 78.6136784,1.47011904 78.5767098,1.44238095 C78.5489834,1.42388889 78.5120148,1.40539682 78.4658041,1.40539682 C78.4288355,1.39615079 78.3733826,1.39615079 78.3086876,1.39615079 L78.336414,1.39615079 Z" id="logo-netpay"></path>
            </g>
        </g>
    </g>
</svg>