<?xml version="1.0" encoding="UTF-8"?>
<svg width="33px" height="30px" viewBox="0 0 33 30" version="1.1" xmlns="http://www.w3.org/2000/svg" xmlns:xlink="http://www.w3.org/1999/xlink">
    <title>1ECEAC0F-E731-4A0E-A524-9E838C700E68</title>
    <g id="VTEX" stroke="none" stroke-width="1" fill="none" fill-rule="evenodd">
        <g id="vtex-pago-efectivo-logos" transform="translate(-322.000000, -342.000000)">
            <g id="opciones" transform="translate(95.000000, 216.000000)">
                <g id="pago-tarjeta" transform="translate(0.000000, 116.000000)">
                    <g id="efectivo_active" transform="translate(227.000000, 10.000000)">
                        <path d="M29.8872282,15.1796867 L10.3830011,23.249002 C9.77350824,23.5011925 9.06789509,23.2225416 8.81492151,22.6296661 L4.23249094,11.8911789 C3.97963188,11.2983029 4.27132841,10.6071293 4.8808213,10.3549388 L24.3850489,2.28551161 C24.9945413,2.03343291 25.7001544,2.31208387 25.9531285,2.90484754 L30.5355586,13.6434465 C30.7885326,14.2362102 30.4967206,14.927608 29.8872282,15.1796867 L17.3882214,11.8337869" id="Fill-40" fill="#0F4520" transform="translate(17.384049, 12.767288) rotate(10.000000) translate(-17.384049, -12.767288) "></path>
                        <path d="M28.933147,16.9238768 L9.44065786,25.0859988 C8.83153165,25.3410896 8.12859153,25.064511 7.87851885,24.4712683 L3.34863197,13.7261306 C3.09867357,13.1328869 3.39244258,12.4390404 4.00156879,12.1839497 L23.4940589,4.02171562 C24.1031841,3.76673697 24.8061242,4.04331547 25.0561979,4.63644616 L29.5860838,15.3816959 C29.8361574,15.9748266 29.5422723,16.6688982 28.933147,16.9238768 L16.4752237,13.6182689" id="Fill-40" fill="#156B2F" transform="translate(16.467382, 14.553889) rotate(20.000000) translate(-16.467382, -14.553889) "></path>
                        <path d="M26.8332642,16.283923 L10.4511978,23.0428434 C9.96417561,23.2449299 9.40210932,23.0259045 9.20212174,22.556032 L5.57949052,14.0454438 C5.37959431,13.5755706 5.6144392,13.0259796 6.10146139,12.8238932 L22.4835285,6.06488403 C22.97055,5.86288635 23.5326163,6.08191169 23.7326046,6.55169543 L27.3552351,15.0623724 C27.5552234,15.5321561 27.3202856,16.0819253 26.8332642,16.283923 L16.0750954,13.9592011" id="Fill-40" fill="#2EA352" transform="translate(16.467382, 14.553889) rotate(20.000000) translate(-16.467382, -14.553889) "></path>
                        <ellipse id="Oval" fill="#156B2F" cx="16.7291667" cy="14.6656955" rx="2.97916667" ry="2.90322581"></ellipse>
                        <ellipse id="Oval-Copy" fill="#156B2F" cx="8.9375" cy="11.5391447" rx="1" ry="1"></ellipse>
                        <ellipse id="Oval-Copy-4" fill="#156B2F" cx="23.8333333" cy="10.6458444" rx="1" ry="1"></ellipse>
                        <ellipse id="Oval-Copy-2" fill="#156B2F" cx="9.39583333" cy="18.4622216" rx="1" ry="1"></ellipse>
                        <ellipse id="Oval-Copy-3" fill="#156B2F" cx="24.2916667" cy="17.5689214" rx="1" ry="1"></ellipse>
                    </g>
                </g>
            </g>
        </g>
    </g>
</svg>