<?xml version="1.0" encoding="UTF-8"?>
<svg width="130px" height="19px" viewBox="0 0 130 19" version="1.1" xmlns="http://www.w3.org/2000/svg" xmlns:xlink="http://www.w3.org/1999/xlink">
    <title>E1A42A32-5D84-4FE8-ABC6-0BD24AB79D1B</title>
    <g id="VTEX" stroke="none" stroke-width="1" fill="none" fill-rule="evenodd">
        <g id="vtex-pago-efectivo-logos" transform="translate(-588.000000, -387.000000)" fill="#435365">
            <g id="Group" transform="translate(449.000000, 387.000000)">
                <path d="M240.429537,5.86387353 C239.261748,5.55935545 238.152242,5.66055201 237.177551,6.46439926 C236.912367,6.68288479 236.634147,6.88636105 236.30424,7.14198293 C236.285835,6.72976943 236.271878,6.42850079 236.257768,6.11083026 L230.244439,6.11083026 C230.282169,6.76566791 230.317751,7.36928834 230.354561,7.99921368 C230.762075,8.02644701 231.116829,8.04934776 231.471583,8.07317692 C232.013913,8.11015853 232.28017,8.40492832 232.28017,8.94789271 C232.283391,11.002616 232.288759,13.0574941 232.288759,15.111289 C232.288759,15.6073688 232.033238,15.8923903 231.541675,15.922873 C231.170663,15.9468569 230.796585,15.9272056 230.371739,15.9272056 L230.371739,17.9907488 L238.666658,17.9907488 L238.666658,15.930455 C238.196414,15.930455 237.767427,15.9477853 237.340434,15.9261225 C236.718196,15.8945566 236.520957,15.7302282 236.520957,15.1058733 C236.523105,13.3589175 236.534914,11.6107238 236.607153,9.86593424 C236.640589,9.06317013 236.950097,8.32013365 237.538746,7.73492666 C238.021874,7.25524879 238.632149,7.18995071 239.326472,7.5803466 C239.104387,7.74034237 238.930768,7.86103551 238.760369,7.98729911 C237.94212,8.59540685 237.902089,9.79738673 238.678468,10.4673884 C239.483834,11.1615287 240.956836,11.0363482 241.667418,10.240083 C242.591495,9.20568087 242.429686,6.38486558 240.429537,5.86387353 L240.429537,5.86387353 Z M252.418465,12.3950745 L250.384881,12.3950745 C250.384881,12.936801 250.402213,13.4404627 250.380587,13.9430413 C250.357888,14.4445368 250.321385,14.9492817 250.246845,15.4452067 C250.171538,15.9412865 249.828594,16.2046451 249.344393,16.2100608 C248.857124,16.2154765 248.522769,15.9575336 248.444088,15.4551097 C248.389027,15.1015407 248.345929,14.7403897 248.349303,14.3835713 C248.36326,12.7084124 248.396696,11.0320156 248.420469,9.35685677 C248.425837,8.93040768 248.420469,8.50287544 248.420469,8.07209377 L251.42537,8.07209377 L251.42537,6.04011646 L248.391328,6.04011646 L248.391328,1.44093417 L245.897315,1.44093417 C245.847776,1.79218215 245.816487,2.09793811 245.758205,2.39812361 C245.418482,4.14074686 244.786735,5.6560647 242.854531,6.17287891 C242.745636,6.20227852 242.61082,6.38285403 242.603305,6.50029773 C242.576311,6.99622275 242.591495,7.49555193 242.591495,8.02319758 C243.212506,8.05259719 243.723548,8.07750949 244.270325,8.10257653 L244.270325,8.52144362 C244.26373,10.394663 244.236737,12.2689656 244.261583,14.1431134 C244.269098,14.8046047 244.342565,15.4778558 244.490264,16.1207788 C244.751152,17.2576154 245.414188,18.1006105 246.614338,18.2920175 C247.472618,18.4301956 248.364334,18.5117409 249.226909,18.4422649 C250.622151,18.3279159 251.647608,17.6153622 252.100368,16.2100608 C252.500521,14.9687783 252.441165,13.6971677 252.418465,12.3950745 L252.418465,12.3950745 Z M226.400583,11.8304472 C226.271135,10.9896183 226.135399,9.95939406 225.942302,8.94015597 C225.892762,8.68020151 225.711627,8.40059574 225.511014,8.22017497 C224.395066,7.21269673 222.288169,7.78923857 221.934489,9.23709204 C221.490318,11.059249 221.468693,12.914055 221.901054,14.7458054 C222.165317,15.8662401 222.794916,16.284024 223.987398,16.274121 C225.168224,16.2643727 225.815001,15.826009 226.047976,14.7109901 C226.231258,13.8364291 226.272209,12.9324684 226.400583,11.8304472 L226.400583,11.8304472 Z M230.167905,15.2278043 C229.228797,17.0519728 227.661009,17.9319496 225.727732,18.2681883 C225.112089,18.3748006 224.482336,18.4018792 223.859178,18.4660941 C223.848442,18.49766 223.836478,18.5292259 223.825742,18.5607918 C222.817616,18.3389021 221.784643,18.1931419 220.80443,17.8808871 C218.929435,17.2825277 217.777904,15.9402033 217.306739,14.0397506 C216.702906,11.6053081 217.036034,9.35685677 218.777441,7.4434063 C219.758574,6.36536899 221.066546,5.92375589 222.44231,5.68004859 C224.197674,5.36996006 225.912087,5.57668575 227.541378,6.31306863 C229.696741,7.28789784 230.647812,9.09581917 230.869897,11.3540188 C231.002566,12.7017588 230.798732,14.0016858 230.167905,15.2278043 L230.167905,15.2278043 Z M170.554243,9.46780162 C170.323569,8.35603212 169.662528,7.85453665 168.588604,7.83612321 C167.308699,7.81430561 166.622964,8.24617042 166.363149,9.40791925 C166.164683,10.2956328 166.116217,11.2169237 165.995359,12.1666859 C166.116217,13.0868937 166.157168,14.0485705 166.385695,14.9633626 C166.655326,16.0403167 167.290448,16.4047172 168.438758,16.3731513 C169.636608,16.3394191 170.285839,15.8988891 170.525102,14.8251844 C170.920807,13.0477458 170.922954,11.2495728 170.554243,9.46780162 L170.554243,9.46780162 Z M175.358833,12.239566 C175.317882,16.7158888 172.159761,18.2833523 169.26897,18.4987431 C168.96483,18.5216439 168.659769,18.5292259 168.355782,18.5443899 C168.349187,18.5727064 168.343819,18.602106 168.338451,18.6315056 C167.406858,18.4671772 166.455787,18.3715511 165.54582,18.1256776 C163.421745,17.5523851 161.646903,15.3234304 161.536934,13.0749791 C161.491688,12.1492009 161.487241,11.178859 161.709479,10.2900623 C162.250736,8.12656042 163.629873,6.66772078 165.795973,6.03795017 C167.485539,5.54728614 169.195658,5.52454012 170.893813,5.98905397 C173.84396,6.7972338 175.387974,9.03701995 175.358833,12.239566 L175.358833,12.239566 Z M185.507275,9.62439323 C185.39838,9.14146594 185.165405,8.58999113 184.808657,8.27881946 C183.600991,7.22801547 181.562039,7.92741674 181.227684,9.48961922 C181.048697,10.3271987 181.012041,11.1952609 180.910814,12.0579073 C181.015261,12.9586186 181.074617,13.8570088 181.236427,14.7360572 C181.371089,15.4626917 181.802376,16.002252 182.546393,16.2448761 C183.970776,16.7081521 185.225834,16.0282474 185.525527,14.5533154 C185.858808,12.9160665 185.875986,11.2582379 185.507275,9.62439323 L185.507275,9.62439323 Z M190.334564,12.7017588 C190.043461,15.8509213 188.033496,17.9591829 184.90559,18.3845489 C184.373996,18.457429 183.838107,18.4911611 183.303293,18.5433068 C182.066639,18.5117409 180.852532,18.352983 179.744099,17.800425 C177.03659,16.4503639 176.108218,14.2116609 176.459751,11.1506972 C176.82202,8.00137997 178.974315,5.98023409 182.126915,5.76159383 C183.275379,5.68221488 184.473229,5.69196317 185.593471,5.92483903 C188.785028,6.59050812 190.644993,9.33395602 190.334564,12.7017588 L190.334564,12.7017588 Z M212.432058,6.10758083 L212.432058,7.95681635 C212.891259,8.01344929 213.309663,8.06559491 213.881134,8.13630871 C213.171627,10.4794577 212.489113,12.727909 211.807673,14.976515 C211.738654,14.9806929 211.67071,14.9851802 211.601692,14.9884296 C211.450772,14.4129709 211.301999,13.8364291 211.146785,13.2620535 C210.777921,11.8903296 210.390805,10.5229382 210.039272,9.14688165 C209.817187,8.27881946 209.879763,8.21027194 210.706908,8.07859263 C210.881448,8.05027617 211.055067,8.01762713 211.285741,7.97755081 C211.312735,7.35412433 211.339729,6.7362683 211.366723,6.10216511 L204.36674,6.10216511 L204.36674,8.00787883 C204.826094,8.03186273 205.232535,8.05259719 205.62824,8.07317692 C205.764129,8.78681379 204.126249,14.4901836 203.663827,14.9579468 C203.628091,14.8915656 203.580698,14.8327664 203.563521,14.7665399 C203.079319,12.9236485 202.581161,11.084316 202.125027,9.23384261 C201.887911,8.27015431 201.979475,8.18520491 202.977939,8.04609833 C203.064135,8.03402901 203.148338,8.0046294 203.266896,7.97538453 L203.266896,6.10108197 C201.360612,6.10108197 199.496352,6.09566625 197.632093,6.10324825 C196.198047,6.10866397 196.208784,6.11516283 196.282096,7.55976687 C196.298354,7.86970066 196.392065,8.01437769 196.699427,8.04934776 C197.593289,8.1527106 198.027798,8.73791759 198.241294,9.55491731 C198.491447,10.5121067 198.752336,11.4649636 199.009084,12.4201415 C199.512457,14.2933609 200.015063,16.1675087 200.526105,18.0701278 C201.990211,18.0701278 203.42441,18.0798761 204.857383,18.0549638 C204.981309,18.0526427 205.166738,17.8428223 205.212136,17.695979 C205.638056,16.3035206 206.038055,14.9045633 206.447716,13.5079271 C206.582532,13.0477458 206.725936,12.590814 206.86612,12.1318706 C206.918881,12.1273833 206.972868,12.1230507 207.025782,12.1187181 C207.614431,14.0877184 208.202006,16.0554807 208.796177,18.041966 C210.150468,18.041966 211.4066,18.0190653 212.661658,18.0538806 C213.115645,18.0657952 213.27408,17.8917185 213.392638,17.4838376 C214.120551,14.9633626 214.919475,12.4614557 215.599842,9.92674502 C215.915792,8.75091531 216.439717,7.96331521 217.734806,7.90776542 C217.7618,7.90575387 217.786493,7.86552282 217.830665,7.82838647 L217.830665,6.10758083 L212.432058,6.10758083 Z M194.692836,1.00390895 L190.383491,1.00390895 L194.692836,1.00390895 Z M196.708015,16.0120003 C195.90357,15.9631041 195.850809,15.9293719 195.851883,15.1298572 C195.852956,10.4141596 195.867987,5.69861677 195.877803,0.98291918 L189.737173,0.98291918 L189.737173,3.11284362 C189.999136,3.11284362 190.194381,3.1171762 190.390699,3.11284362 C191.449439,3.08994287 191.47858,3.08994287 191.483948,4.1658139 C191.500052,7.72951094 191.494684,11.2942911 191.493611,14.8589166 C191.493611,15.055894 191.468764,15.2537998 191.450513,15.4507772 C191.420298,15.7769581 191.276893,15.9728524 190.913551,15.9804344 C190.540545,15.9892542 190.16846,16.0370673 189.676744,16.0783815 C189.676744,16.5569762 189.697296,17.0182406 189.671376,17.4773388 C189.645609,17.9505178 189.795455,18.1256776 190.305423,18.1179408 C192.60097,18.0832802 194.89667,18.0930285 197.192063,18.0843634 C197.347431,18.0843634 197.502645,18.0614626 197.663381,18.0484649 L197.663381,16.0141666 C197.316143,16.0141666 197.011082,16.0305684 196.708015,16.0120003 L196.708015,16.0120003 Z M268.332231,15.9347876 C267.999103,15.9347876 267.717662,15.9423696 267.436221,15.9326213 C266.845272,15.9120416 266.668585,15.7455469 266.623186,15.1646725 C266.60064,14.8599997 266.589751,14.5533154 266.589751,14.2475594 C266.588677,12.8965699 266.626407,11.5443426 266.58653,10.1944362 C266.563831,9.42540428 266.48515,8.64538619 266.315978,7.89801713 C266.098034,6.93866141 265.481318,6.26633873 264.5077,6.01179999 C262.480558,5.48198805 260.592679,5.61150108 259.035628,7.23559748 C258.863235,7.41508984 258.638849,7.54661441 258.471672,7.67504429 L258.471672,0.98291918 L252.654661,0.98291918 L252.654661,3.04212982 C252.842237,3.04212982 253.0019,3.03996353 253.162482,3.04212982 C254.324903,3.05946012 254.44024,3.195472 254.42935,4.36588598 C254.406804,6.70810656 254.399289,9.05001767 254.389626,11.3931667 C254.384105,12.6180473 254.393768,13.8440111 254.383031,15.0688917 C254.377663,15.7020665 254.224596,15.8564918 253.600211,15.930455 C253.301592,15.9663535 253.0019,16.0011688 252.656808,16.0413999 C252.630888,16.5634751 252.614784,17.0638874 252.577974,17.5632166 C252.548987,17.9526841 252.721532,18.0385619 253.088096,18.0343825 C255.205729,18.0080791 257.324435,18.0080791 259.442068,17.9961645 C259.61354,17.9950814 259.783939,17.9712522 260.006024,17.9537672 L260.006024,16.057647 C258.507255,15.7053159 258.518144,15.7053159 258.559095,14.2170767 C258.588236,13.1727715 258.544985,12.1264548 258.60434,11.084316 C258.644218,10.3901757 258.725199,9.67669359 258.937468,9.02061806 C259.203879,8.1949532 260.062159,7.84803779 261.081022,8.00695042 C261.822891,8.12222785 262.317828,8.6432199 262.344822,9.52427982 C262.398656,11.3605176 262.408319,13.1989217 262.395436,15.0362427 C262.391141,15.7520458 262.258473,15.8346742 261.528566,15.9369539 C261.339763,15.9641872 261.153261,16.0087508 260.971052,16.0435662 L260.971052,17.98425 C263.364758,17.98425 265.694814,17.9874994 268.026097,17.9721806 C268.128397,17.9712522 268.31398,17.7993419 268.318121,17.7003116 C268.346342,17.1313518 268.332231,16.5591425 268.332231,15.9347876 L268.332231,15.9347876 Z M164.27343,1.13951079 L164.27343,3.22270532 C162.818986,3.21404018 162.451349,4.30182578 162.15365,5.40369225 C161.168069,9.05001767 160.211783,12.7040798 159.240313,16.3536547 C159.083872,16.9421111 159.07743,17.7623603 158.689241,18.0461439 C158.273138,18.3518998 157.489244,18.1626592 156.864859,18.1702412 C155.98618,18.1799895 155.107348,18.1724075 154.202749,18.1724075 C153.548302,15.8499929 152.901218,13.5514076 152.253213,11.2528222 C152.203674,11.2463233 152.154134,11.2398245 152.104441,11.2333256 C151.423001,13.5393383 150.741561,15.8456604 150.0569,18.1626592 C148.549541,18.1626592 147.078839,18.1505899 145.608137,18.1702412 C145.223169,18.1745737 145.232831,17.9005384 145.172402,17.6774109 C144.225779,14.2073284 143.28667,10.7350796 142.344188,7.26391394 C142.193268,6.70903497 142.023023,6.15864331 141.88376,5.60066964 C141.588362,4.41277063 141.024406,3.46966206 139.747875,3.14657581 L139.747875,1.09169774 C142.099557,1.09711346 144.450011,1.10252918 146.801693,1.10794489 L147.469022,1.10794489 L147.469022,3.16932182 C147.404452,3.20522029 147.376385,3.23137047 147.345096,3.23678619 C145.915345,3.47616092 145.822707,3.59360463 146.196786,4.9925619 C146.922551,7.70336076 147.670709,10.4065776 148.411505,13.1130439 C148.442793,13.2294045 148.488038,13.3425156 148.567946,13.5808072 C148.680983,13.3295179 148.764111,13.1837577 148.814725,13.0270114 C149.46503,11.0081865 150.131286,8.99353947 150.751223,6.96465685 C151.093094,5.84654323 150.740487,4.81306954 150.099998,3.90694258 C149.885428,3.60443606 149.441257,3.42169427 149.064877,3.29125284 C148.747854,3.18139113 148.627148,3.02696581 148.627148,2.72120986 C148.628222,2.20455038 148.628222,1.68665302 148.628222,1.13409507 L156.657958,1.13409507 C156.619001,1.79883575 156.581424,2.45135238 156.542467,3.13125706 C156.222222,3.17164284 155.939708,3.20197086 155.65842,3.24235664 C155.086796,3.32606817 154.828054,3.57627433 154.915477,4.14724572 C155.047072,5.01546265 155.251826,5.87470496 155.458881,6.72976943 C155.94845,8.75741418 156.455197,10.7818095 156.961945,12.8051217 C157.0213,13.041247 157.122527,13.2663861 157.313477,13.4893589 C157.852587,11.4954464 158.397064,9.50261694 158.929731,7.5065381 C159.198289,6.49905986 159.472061,5.49189108 159.694147,4.47373614 C159.875435,3.64141768 159.629576,3.3466479 158.789548,3.25752065 C158.559793,3.23353676 158.329119,3.22595476 158.034795,3.20630344 L158.034795,1.13951079 L164.27343,1.13951079 Z" id="woolworth"></path>
            </g>
        </g>
    </g>
</svg>