<?xml version="1.0" encoding="UTF-8"?>
<svg width="74px" height="23px" viewBox="0 0 74 23" version="1.1" xmlns="http://www.w3.org/2000/svg" xmlns:xlink="http://www.w3.org/1999/xlink">
    <title>0EBF26E8-1489-4476-895A-96A3682380C7@1.5x</title>
    <defs>
        <polygon id="path-1" points="0 0.00495380892 12.9456028 0.00495380892 12.9456028 16.4466456 0 16.4466456"></polygon>
        <polygon id="path-3" points="0 0 12.9456028 0 12.9456028 16.4416918 0 16.4416918"></polygon>
    </defs>
    <g id="VTEX" stroke="none" stroke-width="1" fill="none" fill-rule="evenodd">
        <g id="vtex-pago-efectivo-logos" transform="translate(-750.000000, -228.000000)">
            <g id="secured-by-netpay" transform="translate(750.000000, 228.000000)">
                <g id="Group-27" transform="translate(19.000000, 0.000000)" fill="#FFFFFF">
                    <g id="Group-24" transform="translate(0.000000, 8.325040)">
                        <path d="M45.3906403,2.93652038 L47.0879204,8.36421504 C47.1988042,8.71832485 47.2781395,9.05673134 47.3415458,9.41115522 L47.5637774,9.41115522 C47.6746612,9.05673134 47.7856997,8.67011567 47.8808092,8.36421504 L49.5463861,2.93652038 L51.6084848,2.93652038 L48.7216395,11.0698967 C48.2139246,12.5354873 47.0879204,14.2265775 44.8038995,14.0978103 L44.6452289,12.8577193 C45.4121366,12.6408565 45.9532558,12.3395099 46.3449834,11.9279259 C46.4594241,11.8076385 46.4071526,11.5270202 46.3098779,11.2294424 C46.1959011,10.8812998 43.3446252,2.93652038 43.3446252,2.93652038 L45.3906403,2.93652038 Z M14.4669237,3.15167153 C17.0392594,3.15167153 18.0747562,4.08085372 18.0747562,5.82896313 C18.0747562,7.21482816 17.4274918,8.03390894 15.9553321,8.03390894 L12.7193256,8.03390894 C12.8811811,9.43559048 13.4798573,9.71890583 14.8389075,9.71890583 C15.5992814,9.71890583 16.7319547,9.6402839 17.6865238,9.53002893 L17.8644702,10.7584965 C17.0231685,11.1520669 15.5992814,11.2781383 14.5962819,11.2781383 C11.716326,11.2781383 10.632241,10.1442627 10.632241,7.21482816 C10.632241,4.15947565 11.7810051,3.15167153 14.4669237,3.15167153 Z M22.7050809,1.03172366 L22.7050809,3.28221572 L25.1628659,3.28221572 L25.1628659,4.68647794 L22.7050809,4.68647794 L22.7050809,8.66070809 C22.7050809,9.34696656 22.9610274,9.5704285 23.7120589,9.5704285 L24.8554972,9.5704285 L25.077495,11.0067472 C24.4972054,11.1824356 23.4389716,11.2781383 22.9269123,11.2781383 C21.4591309,11.2781383 20.6566771,10.448248 20.6566771,8.995901 L20.6566771,4.68647794 L19.1379727,4.68647794 L19.1379727,3.36189017 L20.6398692,3.28221572 L20.6398692,1.03172366 L22.7050809,1.03172366 Z M39.8467318,3.15167153 C41.8432766,3.15167153 42.8831403,3.78263085 42.8831403,5.84982652 L42.8831403,11.1044361 L41.2988082,11.1044361 L41.0844962,9.92098346 C40.5067227,10.5365573 39.4506086,11.2781383 37.9985321,11.2781383 C36.5133113,11.2781383 35.4406251,10.4891699 35.4406251,9.03739424 L35.4406251,8.2485797 C35.4406251,7.01758591 36.3152497,6.30739127 37.833454,6.30739127 L40.8697015,6.30739127 L40.8697015,5.83413331 C40.8532903,4.95039024 40.5397061,4.72960833 39.3848025,4.72960833 C38.6421117,4.72960833 37.2725743,4.79268887 36.0016656,4.88730969 L35.8037648,3.53030866 C36.9589902,3.32521996 38.7740455,3.15167153 39.8467318,3.15167153 Z M2.25627976,0.340871471 C2.67927493,0.340871471 2.88305808,0.530776003 3.07110686,0.94221011 L6.01649142,7.44509047 C6.22027458,7.91977466 6.53358736,8.58436339 6.76868651,9.16981237 L6.95642977,9.16981237 C6.90953214,8.56831946 6.87806338,7.98302475 6.87806338,7.39757577 L6.87806338,0.340871471 L8.78956159,0.340871471 L8.78956159,10.5304606 C8.78956159,11.0049905 8.53903358,11.2581451 8.06898802,11.2581451 L6.51785298,11.2581451 C6.09470505,11.2581451 5.87549303,11.0682406 5.70302588,10.6568065 L2.66369331,3.96433015 C2.45991015,3.52111673 2.13101575,2.84063835 2.0211806,2.33448338 L1.83328459,2.33448338 C1.91180374,2.88830732 1.9272326,3.44213126 1.9272326,3.98006554 L1.9272326,11.2581451 L0,11.2581451 L0,1.06886455 C0,0.594180359 0.26656792,0.340871471 0.736613473,0.340871471 L2.25627976,0.340871471 Z M31.0650745,6.21724894e-15 C33.9993921,6.21724894e-15 34.9499006,0.773074321 34.9499006,3.57533133 C34.9499006,6.39391979 33.9993921,7.1508197 31.3271955,7.1508197 C30.5075877,7.1508197 29.7044423,7.10261051 29.015895,7.02205249 L29.015895,11.2577083 L26.9668753,11.2577083 L26.9668753,0.144941621 C28.0999496,0.0321329135 28.9069085,0.00576851554 30.3867481,0.000940052113 L31.0650745,6.21724894e-15 L31.0650745,6.21724894e-15 Z M40.8697015,7.61715881 L38.2955441,7.61715881 C37.6353923,7.64869909 37.4374916,7.96440953 37.4374916,8.48505482 L37.4374916,8.7849182 C37.4374916,9.44772551 37.767487,9.73158797 38.4936057,9.73158797 C39.1206131,9.73158797 40.0449543,9.46341871 40.8697015,8.81645847 L40.8697015,7.61715881 Z M14.5478514,4.66360804 C13.1886435,4.66360804 12.7355742,5.07299487 12.6871438,6.6950328 L15.4052441,6.6950328 C16.0362598,6.6950328 16.1171876,6.20687048 16.1171876,5.79733009 C16.1171876,4.97855643 15.761137,4.66360804 14.5478514,4.66360804 Z M31.0158468,1.65874143 L29.015895,1.65874143 L29.015895,5.50809565 L31.0158468,5.50809565 C32.4420093,5.49192124 32.8845783,5.10546259 32.8845783,3.57533133 C32.8845783,2.04535711 32.4420093,1.65874143 31.0158468,1.65874143 Z M53.8697821,0.325074376 C54.163202,0.325074376 54.4135564,0.428186074 54.6212759,0.635268733 C54.8288518,0.842064972 54.9329268,1.09168121 54.9329268,1.38426065 C54.9329268,1.67684009 54.8288518,1.92688596 54.6212759,2.13425504 C54.4135564,2.3413377 54.163202,2.44502224 53.8697821,2.44502224 C53.5765058,2.44502224 53.3260079,2.3413377 53.1181449,2.13425504 C52.910569,1.92688596 52.8064939,1.67684009 52.8064939,1.38426065 C52.8064939,1.09168121 52.910569,0.842064972 53.1181449,0.635268733 C53.3260079,0.428186074 53.5765058,0.325074376 53.8697821,0.325074376 Z M53.8710741,0.459835637 C53.6169874,0.459835637 53.4000806,0.550058372 53.2202102,0.730217422 C53.0403398,0.910519682 52.9503328,1.12848635 52.9503328,1.38426065 C52.9503328,1.64017815 53.0403398,1.85843125 53.2202102,2.03916314 C53.4000806,2.21975182 53.6169874,2.31011777 53.8710741,2.31011777 C54.1250173,2.31011777 54.341924,2.21975182 54.5217945,2.03916314 C54.7016649,1.85843125 54.7916719,1.64017815 54.7916719,1.38426065 C54.7916719,1.12848635 54.7016649,0.910519682 54.5217945,0.730217422 C54.341924,0.550058372 54.1250173,0.459835637 53.8710741,0.459835637 Z M53.8427944,0.801965978 C53.9195946,0.801965978 53.9804606,0.804830192 54.0252488,0.81055862 C54.0698934,0.816143837 54.1152557,0.832183434 54.1610488,0.858390991 C54.210287,0.886317075 54.2458879,0.919541956 54.2678513,0.958924896 C54.2901018,0.998164625 54.3011553,1.04843158 54.3011553,1.10972575 C54.3011553,1.19149906 54.2783306,1.25837845 54.2329682,1.31093678 C54.1876058,1.36306547 54.1283189,1.40402372 54.0553946,1.43338192 L54.4807386,1.92402175 L54.2016739,1.92402175 L53.8537043,1.48866124 L53.7025443,1.48866124 L53.7025443,1.92402175 L53.4998491,1.92402175 L53.4998491,0.801965978 L53.8427944,0.801965978 Z M53.8439428,0.955201418 L53.7025443,0.955201418 L53.7025443,1.33413691 L53.8231278,1.33413691 C53.862461,1.33413691 53.8992103,1.33012701 53.9336627,1.32253684 C53.9679716,1.31466025 53.9959642,1.30134166 54.0172099,1.28258106 C54.0385991,1.26382046 54.0539591,1.24219564 54.06329,1.21770662 C54.0727644,1.19307438 54.0775016,1.16171124 54.0775016,1.12318756 C54.0775016,1.0929701 54.0726208,1.06676255 54.0627158,1.0447081 C54.0528107,1.02265365 54.035728,1.00389305 54.0110371,0.988426298 C53.9906528,0.975250915 53.9676845,0.966371852 53.9422758,0.961932321 C53.9168671,0.957492789 53.8841373,0.955201418 53.8439428,0.955201418 Z" id="Combined-Shape"></path>
                    </g>
                    <path d="M1.656,4.35929374 C2.024,4.35929374 2.336,4.30278438 2.592,4.18976565 C2.848,4.07674692 3.039,3.92538256 3.165,3.73567255 C3.291,3.54596255 3.354,3.33405243 3.354,3.09994222 C3.354,2.82546816 3.283,2.60750348 3.141,2.44604815 C2.999,2.28459283 2.828,2.16451043 2.628,2.08580096 C2.428,2.00709149 2.172,1.93140931 1.86,1.85875441 C1.632,1.80224505 1.452,1.75179026 1.32,1.70739005 C1.188,1.66298983 1.079,1.60244409 0.993,1.52575281 C0.907,1.44906153 0.864,1.35017014 0.864,1.22907865 C0.864,1.05551418 0.939,0.916258962 1.089,0.811313002 C1.239,0.706367041 1.468,0.653894061 1.776,0.653894061 C1.964,0.653894061 2.158,0.682148743 2.358,0.738658106 C2.558,0.795167469 2.75,0.877913323 2.934,0.986895666 L2.934,0.986895666 L3.18,0.375383628 C3,0.254292135 2.786,0.161455324 2.538,0.0968731942 C2.29,0.0322910647 2.038,0 1.782,0 C1.414,0 1.103,0.0565093633 0.849,0.16952809 C0.595,0.282546816 0.405,0.434920278 0.279,0.626648475 C0.153,0.818376672 0.09,1.03129588 0.09,1.2654061 C0.09,1.54391653 0.161,1.76490851 0.303,1.92838202 C0.445,2.09185554 0.615,2.21193793 0.813,2.28862921 C1.011,2.36532049 1.27,2.44201177 1.59,2.51870305 C1.818,2.57521241 1.998,2.6256672 2.13,2.67006742 C2.262,2.71446763 2.371,2.77602247 2.457,2.85473194 C2.543,2.93344141 2.586,3.03334189 2.586,3.15443339 C2.586,3.31992509 2.509,3.45312574 2.355,3.55403531 C2.201,3.65494489 1.968,3.70539968 1.656,3.70539968 C1.404,3.70539968 1.153,3.66200856 0.903,3.57522632 C0.653,3.48844409 0.442,3.37643446 0.27,3.23919743 L0.27,3.23919743 L0,3.85070947 C0.176,4.00409203 0.415,4.12720171 0.717,4.22003852 C1.019,4.31287533 1.332,4.35929374 1.656,4.35929374 Z M7.278,4.29874799 L7.278,3.63879936 L4.908,3.63879936 L4.908,2.47026645 L6.936,2.47026645 L6.936,1.82242697 L4.908,1.82242697 L4.908,0.720494382 L7.194,0.720494382 L7.194,0.0605457464 L4.128,0.0605457464 L4.128,4.29874799 L7.278,4.29874799 Z M10.092,4.35929374 C10.436,4.35929374 10.751,4.29874799 11.037,4.1776565 C11.323,4.05656501 11.564,3.88098234 11.76,3.65090851 L11.76,3.65090851 L11.256,3.16654254 C10.952,3.50156233 10.578,3.66907223 10.134,3.66907223 C9.846,3.66907223 9.588,3.6054992 9.36,3.47835313 C9.132,3.35120706 8.954,3.1746153 8.826,2.94857785 C8.698,2.7225404 8.634,2.46623007 8.634,2.17964687 C8.634,1.89306367 8.698,1.63675334 8.826,1.41071589 C8.954,1.18467844 9.132,1.00808668 9.36,0.88094061 C9.588,0.753794543 9.846,0.690221509 10.134,0.690221509 C10.578,0.690221509 10.952,0.855713216 11.256,1.18669663 L11.256,1.18669663 L11.76,0.708385233 C11.564,0.478311396 11.324,0.302728732 11.04,0.181637239 C10.756,0.0605457464 10.442,0 10.098,0 C9.674,0 9.291,0.0938459069 8.949,0.281537721 C8.607,0.469229535 8.338,0.728567148 8.142,1.05955056 C7.946,1.39053398 7.848,1.76389941 7.848,2.17964687 C7.848,2.59539433 7.945,2.96875976 8.139,3.29974318 C8.333,3.63072659 8.601,3.89006421 8.943,4.07775602 C9.285,4.26544783 9.668,4.35929374 10.092,4.35929374 Z M14.316,4.35929374 C14.896,4.35929374 15.347,4.19481113 15.669,3.86584591 C15.991,3.53688068 16.152,3.06563296 16.152,2.45210273 L16.152,2.45210273 L16.152,0.0605457464 L15.384,0.0605457464 L15.384,2.42182986 C15.384,3.25332477 15.03,3.66907223 14.322,3.66907223 C13.61,3.66907223 13.254,3.25332477 13.254,2.42182986 L13.254,2.42182986 L13.254,0.0605457464 L12.474,0.0605457464 L12.474,2.45210273 C12.474,3.06563296 12.636,3.53688068 12.96,3.86584591 C13.284,4.19481113 13.736,4.35929374 14.316,4.35929374 Z M18.024,4.29874799 L18.024,3.06361477 L19.022625,3.06323636 C19.069875,3.06247953 19.107,3.06058748 19.134,3.05756019 L19.134,3.05756019 L19.992,4.29874799 L20.832,4.29874799 L19.866,2.90619583 C20.154,2.7931771 20.375,2.62163082 20.529,2.39155698 C20.683,2.16148315 20.76,1.8870091 20.76,1.56813483 C20.76,1.25733333 20.688,0.988913858 20.544,0.762876404 C20.4,0.536838951 20.193,0.363274478 19.923,0.242182986 C19.653,0.121091493 19.336,0.0605457464 18.972,0.0605457464 L18.972,0.0605457464 L17.244,0.0605457464 L17.244,4.29874799 L18.024,4.29874799 Z M18.936,2.41577528 L18.024,2.41577528 L18.024,0.726548957 L18.936,0.726548957 C19.276,0.726548957 19.534,0.799203852 19.71,0.944513644 C19.886,1.08982343 19.974,1.29769716 19.974,1.56813483 C19.974,1.8385725 19.886,2.04745532 19.71,2.19478331 C19.534,2.34211129 19.276,2.41577528 18.936,2.41577528 L18.936,2.41577528 Z M24.78,4.29874799 L24.78,3.63879936 L22.41,3.63879936 L22.41,2.47026645 L24.438,2.47026645 L24.438,1.82242697 L22.41,1.82242697 L22.41,0.720494382 L24.696,0.720494382 L24.696,0.0605457464 L21.63,0.0605457464 L21.63,4.29874799 L24.78,4.29874799 Z M27.486,4.29874799 C27.934,4.29874799 28.332,4.21095666 28.68,4.035374 C29.028,3.85979133 29.298,3.61155377 29.49,3.29066132 C29.682,2.96976886 29.778,2.59943071 29.778,2.17964687 C29.778,1.75986303 29.682,1.38952488 29.49,1.06863242 C29.298,0.747739968 29.028,0.499502408 28.68,0.323919743 C28.332,0.148337079 27.934,0.0605457464 27.486,0.0605457464 L27.486,0.0605457464 L25.65,0.0605457464 L25.65,4.29874799 L27.486,4.29874799 Z M27.45,3.63274478 L26.43,3.63274478 L26.43,0.726548957 L27.45,0.726548957 C27.758,0.726548957 28.029,0.786085607 28.263,0.905158909 C28.497,1.02423221 28.677,1.1937603 28.803,1.41374318 C28.929,1.63372606 28.992,1.88902729 28.992,2.17964687 C28.992,2.47026645 28.929,2.72556768 28.803,2.94555056 C28.677,3.16553344 28.497,3.33506153 28.263,3.45413483 C28.029,3.57320813 27.758,3.63274478 27.45,3.63274478 L27.45,3.63274478 Z M34.35,4.29874799 C34.886,4.29874799 35.294,4.19884751 35.574,3.99904655 C35.854,3.79924559 35.994,3.51568967 35.994,3.14837881 C35.994,2.88197753 35.926,2.65896736 35.79,2.47934831 C35.654,2.29972927 35.47,2.1715741 35.238,2.09488283 C35.406,2.0060824 35.538,1.88095452 35.634,1.7194992 C35.73,1.55804387 35.778,1.37237025 35.778,1.16247833 C35.778,0.819385768 35.644,0.549957196 35.376,0.354192616 C35.108,0.158428036 34.726,0.0605457464 34.23,0.0605457464 L34.23,0.0605457464 L32.262,0.0605457464 L32.262,4.29874799 L34.35,4.29874799 Z M34.146,1.84664526 L33.042,1.84664526 L33.042,0.67811236 L34.146,0.67811236 C34.418,0.67811236 34.627,0.727558052 34.773,0.826449438 C34.919,0.925340824 34.992,1.07165971 34.992,1.2654061 C34.992,1.4551161 34.919,1.5994168 34.773,1.69830819 C34.627,1.79719957 34.418,1.84664526 34.146,1.84664526 L34.146,1.84664526 Z M34.302,3.68118138 L33.042,3.68118138 L33.042,2.4581573 L34.302,2.4581573 C34.906,2.4581573 35.208,2.66199465 35.208,3.06966934 C35.208,3.47734403 34.906,3.68118138 34.302,3.68118138 L34.302,3.68118138 Z M38.64,4.29874799 L38.64,2.80326806 L40.284,0.0605457464 L39.516,0.0605457464 L38.274,2.1251557 L37.044,0.0605457464 L36.21,0.0605457464 L37.86,2.81537721 L37.86,4.29874799 L38.64,4.29874799 Z M40.962,2.03433708 C41.098,2.03433708 41.214,1.98690958 41.31,1.89205457 C41.406,1.79719957 41.454,1.67711717 41.454,1.53180738 C41.454,1.38246121 41.407,1.26136972 41.313,1.16853291 C41.219,1.07569609 41.102,1.02927769 40.962,1.02927769 C40.822,1.02927769 40.705,1.07569609 40.611,1.16853291 C40.517,1.26136972 40.47,1.38246121 40.47,1.53180738 C40.47,1.67711717 40.518,1.79719957 40.614,1.89205457 C40.71,1.98690958 40.826,2.03433708 40.962,2.03433708 Z M40.962,4.34113002 C41.098,4.34113002 41.214,4.29370251 41.31,4.19884751 C41.406,4.10399251 41.454,3.98391011 41.454,3.83860032 C41.454,3.68925415 41.407,3.56816265 41.313,3.47532584 C41.219,3.38248903 41.102,3.33607063 40.962,3.33607063 C40.822,3.33607063 40.705,3.38248903 40.611,3.47532584 C40.517,3.56816265 40.47,3.68925415 40.47,3.83860032 C40.47,3.98391011 40.518,4.10399251 40.614,4.19884751 C40.71,4.29370251 40.826,4.34113002 40.962,4.34113002 Z" id="SECUREDBY:" fill-rule="nonzero"></path>
                </g>
                <g id="Group-13" transform="translate(0.000000, 0.000034)">
                    <path d="M10.3670107,5.72117925 L8.98401418,5.72117925 L8.98410638,4.0377759 C8.98410638,4.03024611 8.97995745,2.88720424 8.29787234,2.15166269 C7.88998582,1.71166538 7.29585816,1.4886449 6.5321773,1.4886449 L6.4869078,1.48715876 C6.47990071,1.48646523 5.38504255,1.43088349 4.68295035,2.14502458 C4.26040426,2.57491612 4.04604255,3.22772906 4.04604255,4.08533246 L4.04604255,5.59029961 L2.66306383,5.59029961 L2.66306383,4.08533246 C2.66306383,2.79565785 3.02697163,1.77547044 3.74446099,1.05340325 C4.82336879,-0.0324716658 6.31947518,-0.00809892592 6.54969504,0.00250222517 C7.69369504,0.00626711995 8.61568085,0.381072303 9.29011348,1.11631662 C10.350766,2.27273378 10.3677305,3.90422121 10.3670107,4.05095303 L10.3670107,5.72117925 Z" id="Fill-1" fill="#FFFFFF"></path>
                    <g id="Group-5" transform="translate(0.000000, 5.202456)">
                        <mask id="mask-2" fill="white">
                            <use xlink:href="#path-1"></use>
                        </mask>
                        <g id="Clip-4"></g>
                        <path d="M12.4335411,0.00495380892 C12.717605,0.00495380892 12.9473638,0.253436864 12.945622,0.55869057 L12.8962858,8.98918167 C12.8962858,11.940661 10.6706121,14.0133347 9.03777518,15.1367595 C9.03500922,15.1388401 9.02855532,15.1437939 9.01933546,15.1507292 C8.84969007,15.2774476 7.61515106,16.1910291 6.77983191,16.4020613 C6.67933546,16.4278211 6.57607305,16.4426826 6.47281064,16.4466456 C6.36954823,16.4426826 6.26619362,16.4278211 6.16578936,16.4020613 C5.33047021,16.1910291 4.09593121,15.2774476 3.92628582,15.1507292 C3.91706596,15.1437939 3.91061206,15.1388401 3.9077539,15.1367595 C2.27500922,14.0133347 0.049335461,11.940661 0.049335461,8.98918167 L-7.31123526e-07,0.55869057 C-0.00174255319,0.253436864 0.228016312,0.00495380892 0.512080142,0.00495380892 L12.4335411,0.00495380892 Z" id="Fill-3" fill="#0255AF" mask="url(#mask-2)"></path>
                    </g>
                    <g id="Group-8" transform="translate(0.000000, 4.612953)">
                        <mask id="mask-4" fill="white">
                            <use xlink:href="#path-3"></use>
                        </mask>
                        <g id="Clip-7"></g>
                        <path d="M12.4335411,0 C12.717605,0 12.9473638,0.248483056 12.945622,0.553736761 L12.8962858,8.98422786 C12.8962858,11.9357072 10.6706121,14.0083809 9.03777518,15.1318057 C9.03500922,15.1338863 9.02855532,15.1388401 9.01933546,15.1457754 C8.84969007,15.2724938 7.61515106,16.1860753 6.77983191,16.3971075 C6.67933546,16.4228673 6.57607305,16.4377288 6.47281064,16.4416918 C6.36954823,16.4377288 6.26619362,16.4228673 6.16578936,16.3971075 C5.33047021,16.1860753 4.09593121,15.2724938 3.92628582,15.1457754 C3.91706596,15.1388401 3.91061206,15.1338863 3.9077539,15.1318057 C2.27500922,14.0083809 0.049335461,11.9357072 0.049335461,8.98422786 L-7.31123521e-07,0.553736761 C-0.00174255319,0.248483056 0.228016312,0 0.512080142,0 L12.4335411,0 Z" id="Fill-6" fill="#FFFFFF" mask="url(#mask-4)"></path>
                    </g>
                    <path d="M10.6586262,7.12943814 L10.6245128,13.0849072 C10.6245128,14.9337678 9.23323617,16.2792223 8.06323617,17.0837209 C8.05954823,17.0865941 8.05208014,17.091647 8.0419383,17.0995731 L8.03834255,17.1024463 C7.57919362,17.4452498 6.95224326,17.8326377 6.58621489,17.9258684 C6.54933546,17.9347852 6.51153404,17.9406307 6.47281064,17.943603 C6.43408723,17.9406307 6.39628582,17.9347852 6.35756241,17.9248776 C5.99337801,17.8326377 5.36642766,17.4452498 4.9091227,17.103437 C4.89529291,17.0926377 4.88976099,17.0886747 4.88607305,17.0865941 L4.88321489,17.0837209 L4.87961915,17.0816403 C3.71238511,16.2792223 2.32110851,14.9337678 2.32110851,13.0819349 L2.28690284,7.12943814 L10.6586262,7.12943814 Z" id="Fill-9" fill="#2575FC"></path>
                    <path d="M10.6245035,13.0849369 C10.6245035,14.9336984 9.23322695,16.2791529 8.06322695,17.0836515 C8.05953901,17.0866238 8.05216312,17.0915776 8.04192908,17.0996028 L8.03833333,17.102476 C7.5791844,17.4452796 6.95223404,17.8326674 6.58620567,17.925799 C6.54932624,17.9347159 6.51152482,17.9406605 6.47280142,17.9436327 C6.43407801,17.9406605 6.3962766,17.9347159 6.35755319,17.9249073 C5.99346099,17.8326674 5.36641844,17.4452796 4.90911348,17.1034667 L4.90358156,17.0996028 C4.89528369,17.0925684 4.88975177,17.0886053 4.88606383,17.0866238 L4.88320567,17.0836515 L4.87960993,17.08167 C3.71237589,16.2791529 2.32109929,14.9336984 2.32109929,13.0819647 L2.28689362,7.12946786 L10.658617,7.12946786 L10.6245035,13.0849369 Z M11.0153333,6.63408697 L1.9301773,6.63408697 C1.87117021,6.63408697 1.82322695,6.68560658 1.82322695,6.74901534 L1.86010638,13.0849369 C1.86010638,15.2041764 3.45882979,16.6923006 4.63058156,17.4987807 C4.63353191,17.5007622 4.63795745,17.5038336 4.64450355,17.5086883 C4.76620567,17.5998384 5.65214184,18.2557227 6.25244681,18.4073093 C6.3243617,18.4261337 6.39904255,18.4371312 6.47280142,18.4390136 C6.54665248,18.4371312 6.62124113,18.4261337 6.69315603,18.4073093 C7.29336879,18.2557227 8.17930496,17.5998384 8.30109929,17.5086883 C8.30755319,17.5038336 8.31216312,17.5007622 8.31492908,17.4987807 C9.48677305,16.6923006 11.0854965,15.2041764 11.0854965,13.0849369 L11.1222837,6.74901534 C11.1222837,6.68560658 11.0744326,6.63408697 11.0153333,6.63408697 L11.0153333,6.63408697 Z" id="Fill-11" fill="#2575FC"></path>
                </g>
                <path d="M9,14.6000735 C9,14.8608693 8.85748549,15 8.59009698,15 L7.70772359,15 C7.4670131,15 7.34231291,14.8956308 7.24420383,14.6695116 L5.51525948,10.9914085 C5.39933609,10.7478239 5.21224234,10.3738413 5.1497619,10.0956647 L5.04287601,10.0956647 C5.08754215,10.4000396 5.09631895,10.7044144 5.09631895,11.0000565 L5.09631895,15 L4,15 L4,9.40009609 C4,9.13921546 4.15163892,9 4.41902743,9 L5.2834996,9 C5.52412319,9 5.64004658,9.10436921 5.74701936,9.33048836 L7.42252077,12.9043918 C7.53844416,13.1652724 7.7166742,13.5305223 7.8504119,13.8522779 L7.95721089,13.8522779 C7.93053287,13.5217047 7.91263165,13.2000339 7.91263165,12.8782783 L7.91263165,9 L9,9 L9,14.6000735 Z" id="Fill-3" fill="#FFFFFF"></path>
            </g>
        </g>
    </g>
</svg>