<?xml version="1.0" encoding="UTF-8"?>
<svg width="98px" height="20px" viewBox="0 0 98 20" version="1.1" xmlns="http://www.w3.org/2000/svg" xmlns:xlink="http://www.w3.org/1999/xlink">
    <title>D7A03244-75F1-4D98-91F3-DB8BA3E24C1E</title>
    <defs>
        <polygon id="path-1" points="0 0 16.6769051 0 16.6769051 6.57271317 0 6.57271317"></polygon>
        <polygon id="path-3" points="0 0 92.0254964 0 92.0254964 16.3692835 0 16.3692835"></polygon>
    </defs>
    <g id="VTEX" stroke="none" stroke-width="1" fill="none" fill-rule="evenodd">
        <g id="vtex-pago-efectivo-logos" transform="translate(-752.000000, -387.000000)">
            <g id="Group" transform="translate(449.000000, 387.000000)">
                <g id="Group-7" transform="translate(303.089857, 0.000000)">
                    <g id="Group-3">
                        <mask id="mask-2" fill="white">
                            <use xlink:href="#path-1"></use>
                        </mask>
                        <g id="Clip-2"></g>
                        <path d="M15.3495507,-7.74225877e-05 L15.3495507,-7.74225877e-05 L1.93115435,-7.74225877e-05 C1.21511316,-7.74225877e-05 0.736328012,0.450134925 0.642524377,1.02344919 C0.472619745,2.06439588 -6.10435802e-05,5.1047809 -6.10435802e-05,5.1047809 L2.3338385,5.1047809 L2.09963463,6.57271317 C2.6020233,5.64751324 3.36344022,4.86941624 4.28967481,4.32242565 L1.53192934,4.32242565 C2.18041564,2.56125534 3.78972789,1.11190449 7.13634043,1.11190449 L11.0541174,1.11190449 C11.0541174,1.11190449 11.0065034,1.41753016 10.9481051,1.77851298 C10.9481051,1.77948076 10.9470877,1.77948076 10.9470877,1.77948076 L14.1856531,1.78083565 C15.1285729,1.78083565 15.4885265,2.09284868 15.3340863,3.07534132 C15.2022322,3.90105322 14.9826787,5.26814256 14.9826787,5.26814256 C15.1607225,5.37072749 15.474283,5.58789785 15.6633147,5.74313014 C15.7638331,5.82481097 15.9459464,5.80119708 15.9740265,5.62002822 C16.0110596,5.39395427 16.4611543,2.58738546 16.6463198,1.40281987 C16.8255844,0.261223811 16.1939869,-7.74225877e-05 15.3495507,-7.74225877e-05 M9.55285229,1.78083565 L10.9470877,1.78083565 C10.848604,2.38840941 10.316711,2.79313599 9.6478768,2.79313599 C9.12432636,2.79313599 8.9033486,2.55331952 8.9033486,2.28659871 C8.9033486,2.05684718 9.1324655,1.78083565 9.55285229,1.78083565" id="Fill-1" fill="#435365" mask="url(#mask-2)"></path>
                    </g>
                    <g id="Group-6" transform="translate(4.884646, 2.944342)">
                        <mask id="mask-4" fill="white">
                            <use xlink:href="#path-3"></use>
                        </mask>
                        <g id="Clip-5"></g>
                        <path d="M90.5553024,14.4211376 L90.5553024,14.4211376 C90.7490141,14.4211376 90.8153481,14.5165609 90.8153481,14.6516633 L90.8153481,14.6834066 C90.8153481,14.844252 90.7227653,14.9088999 90.5207111,14.9088999 C90.4366744,14.9088999 90.3367664,14.8998027 90.278775,14.8918669 L90.278775,14.4211376 L90.5553024,14.4211376 Z M90.278775,15.1630395 L90.278775,15.72145 L89.9092579,15.72145 L89.9092579,14.1491908 L90.5721912,14.1491908 C91.0340876,14.1491908 91.17754,14.3648127 91.17754,14.6671479 C91.17754,14.9088999 91.0672546,15.0590997 90.8582821,15.1314898 C90.992171,15.3393695 91.1254495,15.5304097 91.2609662,15.72145 L90.8582821,15.72145 C90.7392471,15.538152 90.6230608,15.3550476 90.5125719,15.171556 C90.4201926,15.171556 90.3630152,15.171556 90.278775,15.1630395 L90.278775,15.1630395 Z M89.3881492,14.9478047 L89.3881492,14.9478047 C89.3881492,14.1422227 89.9092579,13.8462749 90.5314954,13.8462749 C91.1516982,13.8462749 91.6728069,14.1422227 91.6728069,14.9478047 C91.6728069,15.7545481 91.1516982,16.0493346 90.5314954,16.0493346 C89.9092579,16.0493346 89.3881492,15.7545481 89.3881492,14.9478047 L89.3881492,14.9478047 Z M89.0363347,14.9478047 L89.0363347,14.9478047 C89.0363347,15.9937839 89.7072036,16.3692835 90.5314954,16.3692835 C91.3604673,16.3692835 92.0256388,15.9937839 92.0256388,14.9478047 C92.0256388,13.9089872 91.3604673,13.5267131 90.5314954,13.5267131 C89.7072036,13.5267131 89.0363347,13.9089872 89.0363347,14.9478047 L89.0363347,14.9478047 Z M85.2839858,4.54569296 L85.2839858,4.54569296 C83.7432459,4.54569296 82.7966634,5.11049074 81.9347281,6.19053584 C81.5810822,5.13623375 80.3600072,4.54569296 79.4716196,4.54569296 C77.9302692,4.54569296 77.1177791,4.99803443 76.3126143,5.87755503 L76.2629655,5.87755503 C76.3091552,5.43063314 76.3209569,5.32398353 76.3697918,4.89719151 C76.4243241,4.41407457 76.2188107,4.35310428 75.906471,4.50620744 C75.4527138,4.72995872 74.199896,5.3352098 74.199896,5.3352098 L72.560062,15.7233855 L74.9350642,15.7233855 C75.3188248,13.3198013 75.6938359,10.9166042 76.0444295,8.72225446 C76.4471137,7.31742161 77.4836337,6.51009757 78.5488441,6.51009757 C79.6055085,6.51009757 80.0442084,7.38865039 79.8315732,8.70406015 C79.5094666,10.6833686 78.7222079,15.7233855 78.7222079,15.7233855 L81.131598,15.7233855 C81.5131204,13.3198013 81.8932184,10.9166042 82.2423877,8.72225446 C82.553303,7.64608049 83.6209552,6.51009757 84.6184073,6.51009757 C85.8919799,6.51009757 86.2362657,7.38865039 86.0270897,8.70406015 C85.71475,10.6843364 84.9177243,15.7233855 84.9177243,15.7233855 L87.28825,15.7233855 C87.6705863,13.3198013 88.0805957,10.7178217 88.429765,8.52443975 C88.6979498,6.8190137 88.3131717,4.54569296 85.2839858,4.54569296 L85.2839858,4.54569296 Z M67.9474056,4.54569296 L67.9474056,4.54569296 C66.4056482,4.54569296 65.4580484,5.11049074 64.5971304,6.19053584 C64.2442985,5.13623375 63.0224095,4.54569296 62.134022,4.54569296 C60.5924681,4.54569296 59.780385,4.99803443 58.9739993,5.87755503 L58.9251644,5.87755503 C58.9725749,5.43063314 58.9847837,5.32398353 59.0319907,4.89719151 C59.0869299,4.41407457 58.8828409,4.35310428 58.5705012,4.50620744 C58.116337,4.72995872 56.8627053,5.3352098 56.8627053,5.3352098 L55.2234817,15.7233855 L57.5986874,15.7233855 C57.9798029,13.3198013 58.3564417,10.9166042 58.7068319,8.72225446 C59.1105334,7.31742161 60.1450186,6.51009757 61.2126709,6.51009757 C62.2695387,6.51009757 62.7078316,7.38865039 62.4939756,8.70406015 C62.1734968,10.6833686 61.3837964,15.7233855 61.3837964,15.7233855 L63.7944073,15.7233855 C64.1767436,13.3198013 64.5558243,10.9166042 64.9058075,8.72225446 C65.2173332,7.64608049 66.2823402,6.51009757 67.2810132,6.51009757 C68.5539753,6.51009757 68.8996854,7.38865039 68.689492,8.70406015 C68.3773559,10.6843364 67.5803302,15.7233855 67.5803302,15.7233855 L69.9518733,15.7233855 C70.3331922,13.3198013 70.7429981,10.7178217 71.0933882,8.52443975 C71.3627939,6.8190137 70.9780159,4.54569296 67.9474056,4.54569296 L67.9474056,4.54569296 Z M51.7332133,9.90991696 C52.2297011,6.64423221 51.3732597,6.18163224 50.0066974,6.18163224 C48.232364,6.18163224 47.0340785,6.87804842 46.5508168,9.90991696 C46.0413064,13.1035987 46.3693139,14.1582879 48.2809954,14.1582879 C50.3009274,14.1582879 51.2713169,12.9508826 51.7332133,9.90991696 L51.7332133,9.90991696 Z M50.1741603,4.53349891 C53.8257872,4.53349891 54.6974896,6.54880887 54.1584747,9.90991696 C53.6216982,13.2406367 52.1928715,15.9355234 48.208557,15.9355234 C44.0700057,15.9355234 43.2908862,13.9773126 43.9499534,9.90991696 C44.5652726,6.0906607 46.7372032,4.53349891 50.1741603,4.53349891 L50.1741603,4.53349891 Z M43.6150276,5.72735521 L43.6150276,5.72735521 C42.8776211,5.04119753 41.9367361,4.53833782 40.0950513,4.53833782 C37.1629246,4.53833782 34.8066424,6.21763375 34.2271354,9.78004057 C33.6594301,13.277606 33.969328,15.9190711 38.2804291,15.9190711 C40.6210434,15.9190711 41.7210488,15.0623902 42.1898635,14.753474 L41.8288924,13.4334189 C40.7209514,13.8549849 40.0832495,14.173966 38.8778423,14.173966 C36.9252616,14.173966 36.2934606,13.274122 36.8562824,9.81836475 C37.3552119,6.75088182 39.3171526,6.22150488 40.2089993,6.22150488 C41.3466481,6.22150488 41.9536248,6.74855914 42.2728827,7.52588192 L43.6150276,5.72735521 Z M8.44334453,9.96895168 L8.44334453,9.96895168 C8.65272401,7.93989921 9.7785711,6.18414848 12.2603996,6.18414848 C13.8623866,6.18414848 14.1747263,7.21173977 14.0764461,7.82182977 C13.9478476,8.60573347 13.6656228,9.22163015 11.7000195,9.49938369 C9.53724548,9.8065578 8.44334453,9.96895168 8.44334453,9.96895168 L8.44334453,9.96895168 Z M14.2115559,13.4334189 L14.5715095,14.753474 C14.1024914,15.0623902 12.679769,15.9190711 10.3367129,15.9190711 C5.78713488,15.9190711 5.37732897,13.6720741 6.03537877,9.65868066 C6.56381269,6.43964302 8.42686276,4.53833782 12.3556276,4.53833782 C14.4766885,4.53833782 16.626033,5.12307191 16.1936409,8.20332957 C15.9431588,9.97650038 14.9111153,10.7956314 12.4091424,11.15584 C10.6466108,11.4095925 8.36765049,11.7235411 8.36765049,11.7235411 C7.94848457,13.8025311 9.12052131,14.173966 10.7937258,14.173966 C12.0001505,14.173966 12.5538157,14.0175724 14.2115559,13.4334189 L14.2115559,13.4334189 Z M25.0164731,9.96895168 L25.0164731,9.96895168 C25.2242247,7.93989921 26.3510892,6.18414848 28.8331212,6.18414848 C30.4363291,6.18414848 30.7476513,7.21173977 30.6489642,7.82182977 C30.5207727,8.60573347 30.2381409,9.22163015 28.2725376,9.49938369 C26.1111879,9.8065578 25.0164731,9.96895168 25.0164731,9.96895168 L25.0164731,9.96895168 Z M30.7844809,13.4334189 L30.7844809,13.4334189 C29.1263338,14.0175724 28.5742964,14.173966 27.3652265,14.173966 C25.6958881,14.173966 24.522427,13.8025311 24.9401686,11.7235411 C24.9401686,11.7235411 27.2205533,11.4095925 28.9826779,11.15584 C31.4850578,10.7956314 32.5160838,9.97650038 32.7663625,8.20332957 C33.198958,5.12307191 31.0504275,4.53833782 28.9281457,4.53833782 C24.9997878,4.53833782 23.1373482,6.43964302 22.6078969,9.65868066 C21.9512714,13.6720741 22.3610773,15.9190711 26.9106553,15.9190711 C29.253508,15.9190711 30.6762303,15.0623902 31.145452,14.753474 L30.7844809,13.4334189 Z M7.52056907,1.67815387 L7.52056907,1.67815387 C4.54611889,1.67815387 2.01993207,2.80078139 1.2884265,7.47323456 C0.483261676,12.6307402 0,15.72145 0,15.72145 L2.45232409,15.72145 C2.45232409,15.72145 2.93558577,12.6307402 3.74319233,7.47323456 C4.31924025,3.79411319 6.29176181,2.34669792 10.1002708,2.32250336 C9.3164712,1.85487093 8.53145076,1.67815387 7.52056907,1.67815387 L7.52056907,1.67815387 Z M16.9503779,15.72145 L19.2706443,1.07309635 C19.2706443,1.07309635 21.018729,0.224157672 21.308686,0.0787967632 C21.6354726,-0.0832100017 21.9117966,-0.015271681 21.8322364,0.469974388 C21.6932606,1.31910662 19.4027019,15.72145 19.4027019,15.72145 L16.9503779,15.72145 Z" id="Fill-4" fill="#435365" mask="url(#mask-4)"></path>
                    </g>
                </g>
            </g>
        </g>
    </g>
</svg>